SplineFontDB: 3.2
FontName: RobustaScript
FullName: RobustaScript
FamilyName: Robusta
Weight: Regular
Copyright: Copyright (c) 2021 David Peters
UComments: "2021-1-31: Created with FontForge (http://fontforge.org)"
FontLog: "test"
Version: 000.800
ItalicAngle: 0
UnderlinePosition: -99
UnderlineWidth: 48
Ascent: 819
Descent: 205
InvalidEm: 0
LayerCount: 2
Layer: 0 0 "Back" 1
Layer: 1 0 "Zeichen" 0
XUID: [1021 422 -1473240910 14531819]
StyleMap: 0x0000
FSType: 0
OS2Version: 0
OS2_WeightWidthSlopeOnly: 0
OS2_UseTypoMetrics: 1
CreationTime: 1612099402
ModificationTime: 1612710996
PfmFamily: 17
TTFWeight: 400
TTFWidth: 5
LineGap: 92
VLineGap: 0
OS2TypoAscent: 0
OS2TypoAOffset: 1
OS2TypoDescent: 0
OS2TypoDOffset: 1
OS2TypoLinegap: 92
OS2WinAscent: 0
OS2WinAOffset: 1
OS2WinDescent: 0
OS2WinDOffset: 1
HheadAscent: 0
HheadAOffset: 1
HheadDescent: 0
HheadDOffset: 1
OS2Vendor: 'PfEd'
Lookup: 258 0 0 "'kern' Horizontales Kerning in Latin lookup 1" { "konsonant - konsonant" [154,15,2] "Konsonant - kl. Vokal" [154,0,2] "kl. Vokal - Konsonant" [154,15,2] } ['kern' ('DFLT' <'dflt' > 'latn' <'dflt' > ) ]
MarkAttachClasses: 1
DEI: 91125
KernClass2: 16 12 "Konsonant - kl. Vokal"
 1 A
 1 B
 1 D
 1 F
 1 H
 1 J
 1 O
 1 P
 1 Q
 1 R
 1 S
 1 T
 1 V
 1 W
 1 Y
 1 a
 1 e
 1 i
 1 l
 1 m
 1 n
 1 o
 1 s
 1 u
 1 y
 1 t

StartChar: a
Encoding: 97 97 0
Width: 535
VWidth: 0
Flags: W
HStem: -2 69<102.256 172.032> 384 75<228.456 329.004>
VStem: 22 76<68.6555 206.645> 336 97<208.003 283.812 284.747 336.013> 361 71<-44.0643 93.302>
LayerCount: 2
Fore
SplineSet
403 -124 m 0xe8
 375 -82 362 -31 361 19 c 0xe8
 361 22 362 26 362 29 c 0
 362 54 352 77 337 96 c 1
 314 94 298 66 272 49 c 0
 223 20 168 -2 111 -2 c 0
 104 -2 97 -2 90 -1 c 0
 62 0 37 20 31 48 c 0
 25 70 22 92 22 115 c 0
 22 166 37 218 61 262 c 0
 75 289 91 312 102 331 c 0
 130 375 169 413 214 439 c 0
 239 451 268 459 296 459 c 0
 316 459 337 455 355 444 c 0
 389 419 399 374 415 337 c 0
 434 316 432 292 433 267 c 0
 433 256 433 245 433 234 c 0xf0
 433 198 432 163 432 128 c 0
 432 72 435 18 451 -35 c 0
 459 -64 479 -85 495 -108 c 0
 499 -114 501 -119 501 -124 c 0
 501 -143 474 -155 455 -155 c 0
 454 -155 454 -155 453 -155 c 0
 452 -155 451 -155 450 -155 c 0
 430 -155 414 -139 403 -124 c 0xe8
170 88 m 2
 225 118 270 163 314 208 c 0
 326 218 336 233 336 248 c 0xf0
 336 256 333 265 326 272 c 0
 324 276 323 280 323 284 c 0
 323 300 340 312 340 329 c 0
 340 331 340 333 339 335 c 0
 337 363 312 384 286 384 c 0
 282 384 277 383 273 382 c 0
 221 370 184 325 156 281 c 0
 127 230 103 175 99 116 c 0
 99 114 98 112 98 109 c 0
 98 91 110 67 128 67 c 0
 132 67 136 68 140 71 c 0
 151 75 159 84 170 88 c 2
EndSplineSet
Validated: 1
EndChar

StartChar: b
Encoding: 98 98 1
Width: 484
VWidth: 0
Flags: HW
LayerCount: 2
Fore
SplineSet
26 77 m 0
 27 109 56 136 85 136 c 0
 95 136 105 133 114 126 c 0
 136 111 168 102 199 102 c 0
 293 118 382 205 382 295 c 0
 382 298 382 302 382 305 c 0
 372 328 346 338 322 338 c 0
 314 338 306 337 299 335 c 0
 260 323 223 298 193 275 c 0
 162 250 143 202 112 176 c 0
 103 167 93 163 84 163 c 0
 70 163 58 174 58 193 c 0
 58 195 58 197 58 199 c 0
 72 285 74 363 81 438 c 0
 101 522 95 801 153 814 c 1
 153 817 154 818 154 818 c 0
 158 818 166 727 166 682 c 0
 166 670 166 661 164 658 c 0
 164 565 150 477 148 381 c 0
 148 378 147 375 147 372 c 0
 147 357 153 349 162 349 c 0
 167 349 173 352 179 358 c 0
 219 377 257 413 303 413 c 0
 306 413 310 412 313 412 c 0
 361 411 418 391 439 345 c 0
 448 321 452 296 452 271 c 0
 452 200 418 129 363 81 c 0
 316 38 252 15 189 4 c 0
 185 4 180 4 175 4 c 0
 116 4 31 26 26 77 c 0
EndSplineSet
Validated: 1
EndChar

StartChar: c
Encoding: 99 99 2
Width: 459
VWidth: 0
Flags: HW
LayerCount: 2
Fore
SplineSet
150 18 m 1
 128 25 103 40 94 50 c 0
 85 60 73 68 68 68 c 0
 46 68 20 127 20 175 c 0
 20 293 147 489 212 489 c 0
 219 489 226 486 231 481 c 0
 240 472 244 462 244 450 c 0
 244 428 230 405 203 388 c 0
 153 356 113 280 112 217 c 0
 112 214 112 211 112 208 c 0
 112 172 118 161 148 137 c 0
 173 117 205 106 243 106 c 0
 269 106 297 112 327 121 c 0
 372 135 394 142 406 142 c 0
 418 142 422 135 428 121 c 0
 432 113 434 106 434 100 c 0
 434 89 428 79 413 63 c 0
 398 46 370 28 351 23 c 0
 318 14 274 10 233 10 c 0
 199 10 168 13 150 19 c 1
 150 18 l 1
EndSplineSet
Validated: 1
EndChar

StartChar: d
Encoding: 100 100 3
Width: 565
VWidth: 0
Flags: HW
HStem: -85 893<404 545>
VStem: 472 77<561 770>
LayerCount: 2
Fore
SplineSet
152 19 m 0
 78 53 45 118 45 188 c 0
 45 235 60 283 86 327 c 0
 123 371 149 394 185 394 c 0
 190 394 194 393 200 393 c 0
 237 392 276 376 296 343 c 0
 308 322 344 283 344 254 c 0
 344 244 340 236 331 229 c 0
 325 223 320 220 314 220 c 0
 289 220 262 266 247 280 c 0
 234 296 213 316 193 316 c 0
 184 316 175 312 167 302 c 0
 139 273 119 231 119 189 c 0
 119 176 121 163 125 150 c 0
 142 121 175 104 204 90 c 0
 208 90 211 89 215 89 c 0
 253 89 284 123 305 152 c 0
 341 203 366 263 366 325 c 0
 376 426 407 523 416 623 c 0
 428 687 428 755 452 816 c 0
 456 818 460 819 464 819 c 0
 479 819 497 807 512 803 c 0
 527 802 529 791 526 778 c 0
 505 605 462 421 460 278 c 0
 463 245 468 153 487 124 c 1
 497 119 501 111 501 102 c 0
 501 79 477 48 462 39 c 0
 456 34 450 33 445 33 c 0
 417 33 393 80 372 86 c 1
 330 65 300 25 253 13 c 0
 240 9 226 6 212 6 c 0
 191 6 171 11 152 19 c 0
EndSplineSet
Validated: 1
EndChar

StartChar: p
Encoding: 112 112 4
Width: 617
VWidth: 0
Flags: HW
LayerCount: 2
Fore
SplineSet
44 -458 m 0
 38.46709004 -441.677915618 36.3781530003 -425.202765773 36.3781530003 -408.659240207 c 0
 36.3781530003 -365.402314707 50.659872988 -321.677915618 55 -279 c 0
 77 -149 90 -17 123 111 c 0
 138 176 159 240 175 303 c 0
 205 376 252 449 330 476 c 0
 351 485 371 488 392 488 c 0
 424 488 458 480 496 473 c 0
 546 457 571 415 589 370 c 0
 591 360 592 349 592 337 c 0
 592 279 571 212 550 164 c 0
 503 93 477 36 397 8 c 0
 386 5 374 3 362 3 c 0
 330 3 296 16 287 49 c 0
 285 55 284 61 284 67 c 0
 284 102 321 128 355 128 c 0
 359 128 362 128 366 128 c 0
 402 128 441 137 461 172 c 0
 484 206 503 249 503 291 c 0
 503 312 499 332 488 351 c 0
 470 377 443 388 414 388 c 0
 385 388 355 377 332 362 c 0
 289 343 298 296 289 259 c 0
 267 170 223 88 214 -4 c 0
 182 -155 148 -305 106 -453 c 0
 101 -475 88 -487 75 -487 c 0
 63 -487 51 -478 44 -458 c 0
EndSplineSet
Validated: 1
EndChar

StartChar: e
Encoding: 101 101 5
Width: 628
VWidth: 0
Flags: W
HStem: 1 95<203.874 431.983> 437 52<198.723 289.531>
VStem: 35 80<240.248 333.891> 301 65<294.901 432.775>
LayerCount: 2
Fore
SplineSet
165 25 m 0
 140 38 117 55 100 78 c 0
 55 127 35 198 35 263 c 0
 35 290 39 316 45 340 c 0
 71 437 173 489 264 489 c 0
 277 489 290 488 302 486 c 0
 337 479 353 434 360 402 c 0
 364 387 366 373 366 359 c 0
 366 344 364 328 357 310 c 0
 312 209 246 190 165 165 c 1
 181 119 231 100 275 97 c 0
 284 96 292 96 301 96 c 0
 384 96 465 126 540 160 c 0
 546 164 553 166 560 166 c 0
 580 166 600 151 600 130 c 0
 600 128 599 125 599 123 c 0
 584 96 552 84 527 68 c 0
 480 42 430 17 377 9 c 0
 347 4 316 1 285 1 c 0
 246 1 207 6 171 22 c 0
 171 24 165 22 165 25 c 0
287 305 m 1
 297 324 301 339 301 356 c 0
 301 368 299 380 295 396 c 0
 288 425 282 437 265 437 c 0
 256 437 245 434 229 429 c 0
 174 411 141 366 120 279 c 0
 117 268 115 259 115 253 c 0
 115 243 120 239 132 239 c 0
 143 239 161 243 187 248 c 0
 235 257 275 280 287 305 c 1
EndSplineSet
Validated: 1
EndChar

StartChar: f
Encoding: 102 102 6
Width: 493
VWidth: 0
Flags: HW
LayerCount: 2
Fore
SplineSet
81 -342 m 2
 49 -306 32 -211 31 -59 c 0
 31 -46 31 -34 31 -23 c 0
 31 74 35 92 57 122 c 0
 76 148 95 158 121 158 c 0
 171 158 178 179 188 334 c 0
 205 609 292 800 401 800 c 0
 447 800 472 782 472 748 c 0
 472 732 466 727 453 732 c 0
 443 736 427 742 417 746 c 0
 415 747 413 747 411 747 c 0
 360 747 284 513 265 290 c 2
 256 186 l 1
 315 179 l 2
 368 173 391 165 391 148 c 0
 391 141 387 132 379 121 c 0
 365 102 355 95 325 95 c 0
 319 95 312 95 304 96 c 2
 249 99 l 1
 235 23 l 2
 228 -19 218 -99 214 -155 c 0
 210 -211 199 -278 191 -306 c 0
 178 -349 170 -357 138 -360 c 0
 135 -360 132 -360 129 -360 c 0
 109 -360 92 -354 81 -342 c 2
160 -39 m 1
 162 -18 163 0 163 16 c 0
 163 49 159 71 152 74 c 0
 151 75 148 75 146 75 c 0
 133 75 110 64 106 45 c 0
 98 -6 93 -55 93 -103 c 0
 93 -142 96 -181 103 -220 c 2
 124 -279 l 1
 137 -211 l 1
 137 -211 155 -96 160 -39 c 1
EndSplineSet
Validated: 1
EndChar

StartChar: g
Encoding: 103 103 7
Width: 576
VWidth: 0
Flags: HW
LayerCount: 2
Fore
SplineSet
26 -431 m 0
 26 -429 26 -426 26 -424 c 0
 26 -405 25 -386 25 -366 c 0
 25 -324 30 -282 60 -249 c 0
 91 -213 120 -172 160 -145 c 1
 182 -146 190 -157 190 -172 c 0
 190 -198 167 -237 159 -257 c 0
 143 -305 132 -357 132 -408 c 0
 132 -448 139 -488 155 -525 c 0
 164 -542 174 -549 184 -549 c 0
 211 -549 237 -498 247 -471 c 0
 292 -329 324 -206 363 -76 c 0
 382 1 411 75 422 154 c 1
 415 161 407 163 397 163 c 0
 370 163 333 144 303 144 c 0
 300 144 296 144 293 145 c 0
 287 144 281 144 275 144 c 0
 225 144 173 163 141 203 c 1
 140 209 139 215 139 221 c 0
 139 268 175 312 204 347 c 0
 263 409 344 458 432 458 c 0
 439 458 445 458 452 457 c 0
 509 439 553 385 553 324 c 0
 553 320 552 315 552 311 c 0
 495 -17 314 -531 265 -605 c 0
 244 -640 213 -684 176 -689 c 0
 86 -670 28 -513 26 -431 c 0
393 264 m 0
 423 280 450 303 466 333 c 0
 469 339 473 347 473 354 c 0
 473 358 471 363 468 367 c 0
 458 375 444 375 432 376 c 0
 420 377 408 378 396 378 c 0
 386 378 376 377 367 376 c 0
 339 370 315 352 293 334 c 0
 267 312 243 287 227 257 c 0
 223 247 218 235 225 226 c 0
 232 220 240 219 249 219 c 0
 254 219 260 220 265 220 c 0
 310 226 353 244 393 264 c 0
EndSplineSet
Validated: 1
EndChar

StartChar: h
Encoding: 104 104 8
Width: 474
VWidth: 0
Flags: HW
LayerCount: 2
Fore
SplineSet
63 9 m 1
 51 13 37 24 33 33 c 0
 21 59 33 245 64 510 c 0
 79 642 93 772 97 799 c 0
 103 845 139 845 148 857 c 0
 148 858 149 858 149 858 c 0
 152 858 154 842 154 823 c 0
 154 815 154 806 153 799 c 0
 150 772 148 674 136 583 c 0
 124 492 114 355 113 271 c 0
 112 193 107 152 107 131 c 0
 107 116 109 111 116 109 c 0
 117 109 118 109 119 109 c 0
 145 109 219 169 263 227 c 0
 322 304 367 343 397 343 c 0
 424 343 438 312 438 251 c 0
 438 232 437 210 434 185 c 0
 431 160 430 137 430 120 c 0
 430 101 431 88 435 82 c 0
 440 73 443 64 443 55 c 0
 443 32 424 13 395 13 c 2
 357 13 l 1
 364 114 l 2
 365 140 366 163 366 181 c 0
 366 202 365 215 363 215 c 0
 355 215 349 209 275 118 c 0
 206 34 162 0 112 -0 c 0
 97 0 80 3 63 9 c 1
EndSplineSet
Validated: 33
EndChar

StartChar: i
Encoding: 105 105 9
Width: 260
VWidth: 0
Flags: HW
HStem: 638 110<128.495 193.056>
LayerCount: 2
Fore
SplineSet
112 33 m 1
 65 69 54 86 36 154 c 0
 24 202 23 231 32 287 c 0
 58 451 75 498 109 499 c 0
 121 499 128 478 128 453 c 0
 128 435 125 414 117 399 c 0
 109 383 105 346 105 307 c 0
 105 268 109 229 117 209 c 0
 125 191 150 164 174 150 c 0
 207 130 225 104 225 76 c 0
 225 62 220 46 210 32 c 0
 198 15 186 6 170 6 c 0
 154 6 135 15 112 32 c 1
 112 33 l 1
119 665 m 0
 117 670 117 676 117 682 c 0
 117 711 133 743 154 748 c 0
 158 749 161 749 164 749 c 0
 186 749 201 730 201 701 c 0
 201 695 200 688 199 681 c 0
 193 649 183 638 159 638 c 0
 141 638 123 650 119 665 c 0
EndSplineSet
Validated: 33
EndChar

StartChar: j
Encoding: 106 106 10
Width: 477
VWidth: 0
Flags: HW
LayerCount: 2
Fore
SplineSet
45 -529 m 2
 23 -501 21 -478 26 -386 c 0
 32 -267 71 -165 142 -87 c 0
 190 -31 228 32 244 93 c 0
 257 141 270 197 275 213 c 0
 280 229 291 281 300 333 c 0
 309 385 320 425 325 425 c 0
 330 425 343 418 356 408 c 0
 367 399 373 392 373 376 c 0
 373 360 367 336 357 293 c 0
 344 240 333 174 332 146 c 0
 332 143 332 140 332 137 c 0
 332 100 338 94 367 89 c 0
 388 86 410 77 416 71 c 0
 420 67 422 60 422 52 c 0
 422 29 405 -1 385 -1 c 0
 333 -1 268 -114 246 -237 c 0
 216 -401 186 -499 155 -529 c 0
 133 -549 114 -560 96 -560 c 0
 78 -560 62 -549 45 -529 c 2
168 -322 m 0
 181 -270 193 -222 194 -169 c 0
 195 -159 192 -136 176 -149 c 0
 134 -213 88 -312 88 -383 c 0
 88 -387 89 -391 89 -395 c 2
 89 -395 88 -416 88 -440 c 0
 88 -446 88 -452 88 -458 c 0
 91 -471 91 -484 101 -492 c 0
 115 -491 118 -474 124 -464 c 0
 145 -419 155 -370 168 -322 c 0
364 647 m 2
 353 664 347 682 347 697 c 0
 347 714 354 729 369 741 c 0
 384 752 393 758 402 758 c 0
 412 758 421 749 433 732 c 0
 441 720 444 711 444 699 c 0
 444 689 442 677 437 661 c 0
 429 634 416 620 402 620 c 0
 390 620 377 629 364 647 c 2
EndSplineSet
Validated: 33
EndChar

StartChar: k
Encoding: 107 107 11
Width: 553
VWidth: 0
Flags: HW
LayerCount: 2
Fore
SplineSet
34 14 m 1
 10 58 39 102 56 142 c 0
 74 212 72 285 82 356 c 0
 94 471 99 586 106 701 c 0
 110 731 108 792 148 792 c 0
 150 792 151 792 153 792 c 1
 169 779 174 762 174 743 c 0
 174 722 168 699 168 679 c 0
 168 678 168 677 168 676 c 0
 156 541 141 406 125 271 c 1
 152 274 160 320 180 339 c 0
 210 384 238 433 279 469 c 0
 296 479 317 486 338 486 c 0
 357 486 376 480 391 468 c 0
 398 457 401 446 401 434 c 0
 401 407 386 378 378 352 c 0
 356 300 329 252 309 200 c 1
 369 157 443 138 504 97 c 0
 518 88 526 68 526 50 c 0
 526 30 516 12 493 12 c 0
 492 12 491 12 490 12 c 0
 445 14 399 28 357 44 c 0
 294 71 236 133 175 141 c 1
 136 92 110 20 45 9 c 1
 39 10 l 1
 34 14 l 1
308 316 m 0
 327 353 335 384 335 404 c 0
 335 420 330 429 321 429 c 0
 309 429 291 415 269 380 c 0
 221 305 199 260 199 237 c 0
 199 224 206 218 221 218 c 0
 243 218 281 262 308 316 c 0
EndSplineSet
Validated: 33
EndChar

StartChar: l
Encoding: 108 108 12
Width: 290
VWidth: 0
Flags: W
HStem: -3 93<126.439 228.993> 798 20G<119.5 126.5>
VStem: 22 60<147.904 441.981> 101 67<692.021 794.71>
LayerCount: 2
Fore
SplineSet
87 19 m 1
 49 50 32 100 22 214 c 0
 15 294 11 380 33 522 c 0
 43 616 83 680 101 770 c 0
 108 803 115 818 124 818 c 0
 129 818 135 812 141 802 c 0
 147 790 168 773 168 754 c 0
 168 751 167 747 166 744 c 0
 143 693 112 591 90 409 c 0
 85 362 82 319 82 281 c 0
 82 206 93 150 122 117 c 0
 139 98 144 90 155 90 c 0
 164 90 175 95 199 102 c 0
 213 106 225 108 235 108 c 0
 256 108 266 98 266 82 c 0
 266 74 264 65 259 54 c 0
 243 18 198 -3 155 -3 c 0
 130 -3 106 4 87 19 c 1
EndSplineSet
Validated: 33
EndChar

StartChar: m
Encoding: 109 109 13
Width: 684
VWidth: 0
Flags: W
HStem: 110 100<366.147 436.226> 126 138<275.459 357.991>
VStem: 24 106<143.844 328.02> 46 84<143.844 389.375> 586 74<33.7715 194.061>
LayerCount: 2
Fore
SplineSet
582 95 m 0x98
 580 127 585 162 568 191 c 0
 548 210 522 185 505 173 c 0
 474 147 444 112 401 111 c 0
 398 111 396 110 393 110 c 0x98
 367 110 345 126 319 126 c 0
 302 126 284 119 263 98 c 0
 239 75 217 48 185 36 c 0
 164 26 140 20 116 20 c 0
 92 20 69 27 50 41 c 0
 30 67 24 92 24 118 c 0x68
 24 145 30 173 34 203 c 0
 41 244 43 284 46 325 c 0
 51 357 61 396 93 411 c 0
 96 412 98 412 101 412 c 0
 128 412 130 372 130 351 c 0
 130 346 130 341 130 336 c 0
 130 290 125 244 125 198 c 0
 125 180 126 161 128 143 c 0
 130 134 136 131 143 131 c 0
 162 131 191 153 202 159 c 0
 240 190 253 211 282 251 c 0
 291 261 302 264 314 264 c 0x58
 329 264 345 258 356 252 c 0
 370 224 375 210 388 210 c 0
 394 210 402 213 412 219 c 0
 458 238 487 282 533 300 c 0
 549 307 567 312 585 312 c 0
 610 312 634 303 650 282 c 0
 659 264 661 244 661 224 c 0
 661 211 660 197 660 184 c 0
 660 181 660 179 660 176 c 0
 658 122 656 64 629 15 c 0
 624 3 611 -5 601 -5 c 0
 593 -5 586 0 586 13 c 0
 586 15 587 17 587 20 c 0
 584 45 582 70 582 95 c 0x98
EndSplineSet
Validated: 33
EndChar

StartChar: n
Encoding: 110 110 14
Width: 620
VWidth: 0
Flags: W
HStem: 16 129<131.013 203.672>
VStem: 482 112<43.0516 214.766> 490 104<85.7852 242.343>
LayerCount: 2
Fore
SplineSet
113 19 m 2xa0
 72 25 39 61 32 101 c 0
 22 151 31 204 51 250 c 0
 55 265 70 279 84 279 c 0
 91 279 97 275 102 266 c 0
 124 232 114 185 140 153 c 0
 146 148 152 145 159 145 c 0
 175 145 193 159 206 168 c 0
 261 211 306 266 363 307 c 0
 406 338 455 370 510 371 c 0
 511 371 511 371 512 371 c 0
 548 371 576 339 583 306 c 0
 591 268 594 230 594 191 c 0
 594 161 593 130 590 100 c 0
 585 69 584 33 561 9 c 0
 556 5 551 4 546 4 c 0
 529 4 513 24 506 39 c 0
 489 71 482 107 482 143 c 0xc0
 482 163 484 182 488 201 c 0
 490 205 490 210 490 215 c 0
 490 229 483 243 472 243 c 0
 468 243 463 241 458 236 c 0
 427 213 405 179 374 155 c 0
 292 93 231 16 138 16 c 0
 132 16 127 16 121 17 c 0
 118 18 116 18 113 19 c 2xa0
EndSplineSet
Validated: 33
EndChar

StartChar: o
Encoding: 111 111 15
Width: 456
VWidth: 0
Flags: W
HStem: -4 75<144.856 221.119> 432 94<196.978 330.911>
VStem: 340 87<252.807 420.996>
LayerCount: 2
Fore
SplineSet
77 39 m 0
 25 96 19 181 31 254 c 0
 36 282 42 311 54 337 c 0
 93 391 117 458 172 499 c 0
 200 517 234 526 267 526 c 0
 300 526 334 517 364 503 c 0
 399 485 428 448 428 408 c 0
 428 404 428 401 427 397 c 0
 427 363 427 330 434 297 c 0
 430 241 398 191 371 143 c 0
 344 99 314 55 271 24 c 0
 231 2 183 -3 138 -4 c 0
 112 -1 94 21 77 39 c 0
235 106 m 0
 297 184 340 276 340 369 c 0
 340 374 340 379 340 384 c 0
 339 401 330 419 312 424 c 0
 293 428 274 432 255 432 c 0
 229 432 205 424 189 400 c 0
 168 368 149 333 140 295 c 0
 130 263 116 249 114 216 c 0
 116 180 120 142 135 109 c 0
 145 91 158 71 180 71 c 0
 181 71 181 71 182 71 c 0
 204 74 220 91 235 106 c 0
EndSplineSet
Validated: 33
EndChar

StartChar: q
Encoding: 113 113 16
Width: 514
VWidth: 0
Flags: HW
LayerCount: 2
Fore
SplineSet
88 -515 m 0
 36 -502 67 -441 75 -407 c 0
 106 -289 146 -175 190 -62 c 0
 206 -16 224 30 230 78 c 1
 209 127 144 112 103 129 c 0
 55 141 32 190 32 236 c 0
 32 237 32 238 32 239 c 0
 31 248 30 258 30 268 c 0
 30 326 49 386 99 419 c 0
 151 459 215 495 282 495 c 0
 298 495 313 493 329 489 c 0
 402 465 445 393 470 325 c 0
 472 319 473 313 473 307 c 0
 473 265 431 234 413 197 c 0
 372 137 338 60 320 2 c 0
 262 -165 233 -316 191 -476 c 0
 182 -509 156 -523 128 -523 c 0
 115 -523 101 -520 88 -515 c 0
346 259 m 0
 359 279 378 298 381 323 c 0
 375 369 321 415 267 420 c 0
 187 414 140 360 117 302 c 0
 113 291 111 278 111 266 c 0
 111 246 117 227 131 212 c 0
 151 190 183 186 211 184 c 0
 218 183 225 183 232 183 c 0
 255 183 279 188 297 203 c 0
 317 219 331 239 346 259 c 0
EndSplineSet
Validated: 33
EndChar

StartChar: r
Encoding: 114 114 17
Width: 506
VWidth: 0
Flags: HW
VStem: 18 75<31.2303 129.473>
LayerCount: 2
Fore
SplineSet
29 45 m 0
 12 65 9 92 18 116 c 0
 25 133 32 153 32 181 c 0
 32 191 31 202 29 214 c 0
 29 218 29 223 29 227 c 0
 29 291 36 320 55 378 c 0
 65 403 74 432 98 447 c 0
 99 447 100 447 101 447 c 0
 118 447 126 413 145 413 c 0
 146 413 146 413 147 413 c 0
 154 413 160 412 167 412 c 0
 239 412 320 435 389 443 c 0
 399 446 410 448 421 448 c 0
 435 448 448 444 459 435 c 0
 477 421 487 398 487 376 c 0
 487 364 484 353 479 342 c 0
 463 324 437 328 415 326 c 0
 344 324 273 318 203 304 c 0
 176 299 149 282 140 255 c 0
 114 185 122 108 93 39 c 0
 90 24 77 16 65 16 c 0
 56 16 47 21 41 30 c 0
 37 34 33 40 29 45 c 0
EndSplineSet
Validated: 33
EndChar

StartChar: s
Encoding: 115 115 18
Width: 480
VWidth: 0
Flags: HW
HStem: 402 75<395.612 443.64>
LayerCount: 2
Fore
SplineSet
101 41 m 0
 70 54 33 66 16 97 c 0
 6 121 7 152 26 171 c 0
 31 176 36 177 41 177 c 0
 59 177 80 156 95 148 c 0
 129 129 163 124 204 122 c 0
 205 122 205 122 206 122 c 0
 225 122 238 136 238 152 c 0
 238 157 237 162 234 167 c 0
 215 248 169 321 157 404 c 0
 155 413 154 422 154 431 c 0
 154 456 162 482 182 495 c 0
 214 517 229 517 267 525 c 0
 274 526 282 527 290 527 c 0
 337 527 397 505 425 477 c 0
 440 460 459 440 459 417 c 0
 459 414 459 411 458 407 c 0
 452 395 442 391 430 391 c 0
 416 391 400 397 388 402 c 0
 364 412 330 423 300 423 c 0
 289 423 279 421 270 418 c 0
 261 413 258 405 258 397 c 0
 258 382 267 365 271 351 c 0
 287 297 303 244 325 191 c 0
 332 172 336 153 336 135 c 0
 336 109 328 84 310 62 c 0
 286 32 247 18 209 18 c 0
 202 18 195 18 188 19 c 0
 158 22 129 30 101 41 c 0
EndSplineSet
Validated: 33
EndChar

StartChar: t
Encoding: 116 116 19
Width: 532
VWidth: 0
Flags: W
HStem: 1 112<281.08 460.961> 356 120<71.6733 178> 372 103<299.014 380.58>
VStem: 151 101<143.487 326.999>
LayerCount: 2
Fore
SplineSet
151 170 m 0xb0
 154 233 168 294 178 356 c 1
 138 358 100 352 67 382 c 0
 34 418 22 430 18 476 c 1xd0
 84 476 155 469 221 469 c 1
 262 560 316 753 361 842 c 0
 381 863 372 802 381 788 c 0
 389 780 392 768 392 754 c 0
 392 729 383 699 375 679 c 0
 361 644 300 513 299 475 c 1
 381 465 398 439 398 439 c 1
 403 431 405 424 405 417 c 0
 405 391 375 372 355 372 c 0
 354 372 l 0
 321 369 307 370 273 360 c 1
 263 329 252 278 252 231 c 0
 252 178 265 131 307 121 c 0
 327 115 347 113 368 113 c 0
 398 113 428 118 456 129 c 0
 461 131 465 131 469 131 c 0
 493 131 509 108 509 84 c 0
 509 77 507 69 504 62 c 0
 464 2 392 1 328 1 c 0
 326 1 324 1 322 1 c 0
 233 5 151 89 151 165 c 0
 151 167 151 168 151 170 c 0xb0
EndSplineSet
Validated: 33
EndChar

StartChar: u
Encoding: 117 117 20
Width: 495
VWidth: 0
Flags: HW
VStem: 342 99<227.857 458.809> 353 118<16.3002 99.1474>
LayerCount: 2
Fore
SplineSet
379 10 m 0x40
 365 37 353 66 353 97 c 1x40
 339 119 313 80 299 71 c 0
 256 29 196 8 136 8 c 0
 102 8 84 41 67 66 c 0
 31 126 20 196 20 265 c 0
 20 298 29 329 29 361 c 0
 29 365 28 370 28 374 c 0
 28 381 27 387 27 394 c 0
 27 422 32 451 52 472 c 0
 60 482 72 487 84 487 c 0
 97 487 110 481 117 468 c 0
 123 459 126 449 126 439 c 0
 126 417 115 393 112 371 c 0
 111 360 110 350 110 339 c 0
 110 293 121 248 134 204 c 0
 138 179 179 143 207 143 c 0
 212 143 216 144 220 146 c 0
 260 167 310 201 328 242 c 0
 334 260 336 281 336 302 c 0
 336 330 333 361 333 389 c 0
 333 412 335 434 342 453 c 0
 349 469 363 475 378 475 c 0
 393 475 409 469 419 459 c 0
 438 441 445 416 445 390 c 0
 445 378 443 366 441 355 c 0x80
 440 348 440 341 440 334 c 0
 440 281 456 230 467 179 c 0
 474 144 480 107 480 71 c 0
 480 48 477 25 471 2 c 0
 467 -16 451 -36 432 -36 c 0
 426 -36 421 -34 415 -30 c 0
 399 -20 388 -6 379 10 c 0x40
EndSplineSet
Validated: 33
EndChar

StartChar: v
Encoding: 118 118 21
Width: 555
VWidth: 0
Flags: HW
LayerCount: 2
Fore
SplineSet
124 46 m 0
 81 77 63 202 55 254 c 0
 43 326 16 387 20 459 c 0
 21 468 22 476 22 484 c 0
 22 509 17 528 17 538 c 0
 17 543 18 546 22 546 c 0
 24 546 27 546 31 544 c 0
 57 533 108 434 112 411 c 0
 116 343 114 224 155 165 c 0
 166 149 176 133 187 117 c 1
 224 168 264 218 289 276 c 0
 311 324 333 374 337 427 c 0
 329 448 318 469 318 493 c 0
 318 496 318 498 318 501 c 0
 318 503 318 505 318 507 c 0
 318 534 323 543 340 543 c 0
 345 543 352 542 359 541 c 0
 404 545 441 566 484 566 c 0
 490 566 496 566 502 565 c 0
 527 561 539 538 539 514 c 0
 539 493 530 473 509 466 c 0
 401 436 398 342 368 221 c 0
 350 160 317 103 275 55 c 0
 255 33 224 14 194 14 c 0
 183 14 172 17 162 22 c 0
 148 28 136 37 124 46 c 0
EndSplineSet
Validated: 33
EndChar

StartChar: w
Encoding: 119 119 22
Width: 708
VWidth: 0
Flags: HW
LayerCount: 2
Fore
SplineSet
24 115 m 0
 20 142 7 317 14 355 c 0
 49 419 38 458 48 458 c 0
 50 458 52 457 56 454 c 0
 83 434 81 369 85 338 c 0
 90 268 81 191 115 128 c 0
 122 113 133 108 146 108 c 0
 160 108 175 114 187 120 c 0
 215 127 243 161 252 208 c 0
 262 240 258 246 289 262 c 0
 295 263 301 263 307 263 c 0
 329 263 345 254 359 213 c 0
 371 177 411 155 448 155 c 0
 452 155 455 156 459 156 c 0
 495 162 499 205 504 234 c 0
 506 250 507 267 507 283 c 0
 507 327 500 372 490 414 c 0
 489 418 488 423 488 428 c 0
 488 452 504 481 528 481 c 0
 530 481 532 480 534 480 c 0
 561 468 586 446 618 446 c 0
 619 446 621 446 622 446 c 0
 625 445 628 445 631 445 c 0
 643 445 658 449 670 449 c 0
 683 449 693 445 693 427 c 0
 693 425 694 422 694 420 c 0
 694 396 669 391 647 391 c 0
 642 391 637 392 633 392 c 0
 629 393 626 394 622 394 c 0
 599 394 588 373 588 351 c 0
 588 347 588 344 589 340 c 0
 586 266 587 189 565 117 c 0
 555 83 525 57 490 54 c 0
 477 52 464 51 451 51 c 0
 412 51 373 60 347 91 c 0
 336 102 326 112 315 123 c 1
 290 89 272 48 236 25 c 0
 204 8 172 -1 135 -1 c 0
 124 -1 113 -1 101 1 c 0
 57 14 32 79 24 115 c 0
EndSplineSet
Validated: 33
EndChar

StartChar: x
Encoding: 120 120 23
Width: 591
VWidth: 0
Flags: W
HStem: 532 20G<86.5 97 550.5 561.5>
VStem: 375 106<14.6264 94.9844>
LayerCount: 2
Fore
SplineSet
41 26 m 0
 19 43 1 71 25 95 c 0
 60 152 102 204 153 247 c 0
 200 284 170 262 208 289 c 1
 170 343 79 406 51 467 c 0
 48 477 47 486 47 494 c 0
 47 533 77 552 96 552 c 0
 98 552 100 551 102 551 c 0
 112 536 107 537 164 470 c 0
 204 409 231 386 290 347 c 1
 320 361 339 384 359 400 c 0
 406 430 448 478 501 495 c 0
 519 501 543 516 558 516 c 0
 565 516 570 512 571 502 c 0
 564 473 571 484 548 467 c 0
 499 435 406 324 361 286 c 1
 363 261 383 237 394 213 c 0
 423 159 475 120 481 57 c 0
 481 55 481 53 481 51 c 0
 481 23 453 6 427 6 c 0
 425 6 423 6 421 6 c 0
 419 6 416 6 414 6 c 0
 390 6 375 21 375 51 c 0
 360 96 280 211 256 211 c 0
 254 211 253 210 252 209 c 0
 224 181 197 144 171 110 c 0
 151 82 113 7 77 7 c 0
 74 7 70 8 67 9 c 0
 57 13 48 19 41 26 c 0
EndSplineSet
Validated: 33
EndChar

StartChar: y
Encoding: 121 121 24
Width: 570
VWidth: 0
Flags: W
HStem: 467 20G<206.5 224>
VStem: 50 72<-311.533 -240.641>
LayerCount: 2
Fore
SplineSet
57 -296 m 1
 52 -287 50 -277 50 -268 c 0
 50 -240 68 -211 79 -186 c 0
 125 -94 173 -3 226 85 c 0
 245 129 282 163 301 207 c 0
 304 214 305 222 305 229 c 0
 305 261 278 289 261 315 c 0
 231 363 201 412 182 465 c 1
 186 481 199 487 214 487 c 0
 234 487 258 475 266 463 c 0
 304 420 320 356 351 308 c 0
 358 299 364 296 370 296 c 0
 389 296 405 332 419 346 c 0
 446 373 479 425 516 437 c 0
 517 437 l 0
 535 437 542 426 542 411 c 0
 542 386 524 351 511 339 c 0
 474 297 432 259 400 212 c 0
 333 118 280 15 224 -85 c 0
 188 -151 154 -217 122 -285 c 0
 114 -303 98 -317 83 -317 c 0
 73 -317 64 -312 57 -296 c 1
EndSplineSet
Validated: 1
EndChar

StartChar: z
Encoding: 122 122 25
Width: 554
VWidth: 0
Flags: HW
LayerCount: 2
Fore
SplineSet
129 150 m 0
 130 181 163 219 164 250 c 1
 138 265 73 227 46 244 c 0
 31 255 17 277 17 298 c 0
 17 308 21 319 29 326 c 0
 60 343 98 341 132 344 c 0
 185 346 239 343 291 359 c 0
 305 365 312 380 312 394 c 0
 312 409 305 424 291 431 c 0
 269 442 245 446 220 446 c 0
 197 446 174 443 151 441 c 0
 138 441 123 439 108 439 c 0
 92 439 76 441 64 452 c 1
 61 459 59 468 59 477 c 0
 59 500 70 525 93 529 c 0
 111 531 130 532 148 532 c 0
 231 532 316 512 385 464 c 0
 405 451 420 427 420 404 c 0
 420 394 418 384 411 376 c 1
 373 355 359 344 359 337 c 0
 359 330 375 328 397 325 c 0
 420 325 429 324 429 319 c 0
 429 314 420 305 405 289 c 0
 383 265 349 257 318 256 c 0
 278 246 237 219 223 178 c 0
 222 175 222 171 222 168 c 0
 222 135 253 107 284 100 c 0
 304 94 324 91 344 91 c 0
 393 91 442 107 487 128 c 0
 508 138 519 143 524 143 c 0
 527 143 528 142 528 139 c 0
 528 133 522 121 515 101 c 0
 493 48 427 1 376 -2 c 0
 366 -3 355 -4 344 -4 c 0
 244 -4 147 44 129 150 c 0
EndSplineSet
Validated: 33
EndChar

StartChar: A
Encoding: 65 65 26
Width: 585
VWidth: 0
Flags: W
HStem: 245 61<250 444.095>
VStem: 440 75<312.532 612.109> 500 52<10.2525 105.173>
LayerCount: 2
Fore
SplineSet
29 6 m 0xa0
 21 13 19 21 19 29 c 0
 19 50 38 72 48 89 c 0
 82 137 112 187 138 239 c 0
 172 294 202 350 229 409 c 0
 281 502 328 596 370 693 c 0
 387 732 405 772 416 813 c 1
 425 822 438 826 450 826 c 0
 471 826 489 814 490 790 c 0
 512 691 508 588 515 487 c 0xc0
 521 402 552 217 552 103 c 0
 552 47 544 8 521 8 c 0
 515 8 508 10 500 16 c 1
 482 72 472 141 447 241 c 1
 432 247 409 249 384 249 c 0
 347 249 305 245 282 245 c 0
 280 245 278 245 276 245 c 0
 239 245 211 218 196 187 c 0
 161 131 133 72 98 16 c 0
 88 4 71 -5 55 -5 c 0
 45 -5 36 -1 29 6 c 0xa0
445 331 m 0
 445 347 446 363 446 380 c 0
 446 437 443 494 440 552 c 0
 438 574 438 594 430 613 c 0
 422 625 408 608 403 601 c 0
 399 588 394 575 387 562 c 0
 334 478 302 399 249 323 c 0
 249 311 270 312 280 310 c 0
 325 306 371 306 416 306 c 0
 427 306 444 307 444 322 c 0
 444 325 445 328 445 331 c 0
EndSplineSet
Validated: 1
EndChar

StartChar: B
Encoding: 66 66 27
Width: 655
VWidth: 0
Flags: W
HStem: 419 79<267.31 380.402> 725 98<263.883 495.946>
VStem: 165 91<506.569 684> 177 90<185.03 417.964 501.907 609.947> 477 79<143.078 300.552> 525 88<609.749 700.284>
LayerCount: 2
Fore
SplineSet
39 35 m 0xc8
 27 50 21 69 21 88 c 0
 21 111 31 134 54 146 c 0
 58 151 62 152 67 152 c 0
 87 152 111 119 130 119 c 0
 133 119 135 119 138 121 c 1
 160 183 174 305 177 371 c 0xd8
 177 457 168 599 165 684 c 1
 163 684 161 685 159 685 c 0
 133 685 103 652 78 652 c 0
 73 652 68 653 64 656 c 0
 54 668 49 684 49 700 c 0
 49 719 57 738 75 748 c 0
 124 778 211 810 295 819 c 0
 321 821 346 823 369 823 c 0
 468 823 544 798 610 724 c 1
 612 715 613 705 613 696 c 0xe4
 613 602 529 491 477 438 c 1
 542 345 556 292 556 226 c 0
 556 219 556 212 556 204 c 0
 554 119 526 48 453 4 c 0
 396 -22 339 -29 278 -33 c 0
 202 -27 79 -16 39 35 c 0xc8
451 138 m 0
 469 154 477 187 477 215 c 0
 477 223 476 231 475 237 c 0
 463 294 436 355 391 393 c 1
 364 402 326 419 299 419 c 0
 283 419 270 412 267 395 c 0
 264 308 258 167 220 99 c 1
 249 85 277 80 304 80 c 0
 363 80 414 108 451 138 c 0
480 574 m 0
 501 597 517 636 525 665 c 0
 525 666 525 668 525 669 c 0
 525 684 515 696 499 702 c 0
 467 716 430 719 395 724 c 0
 389 725 382 725 375 725 c 0
 339 725 291 717 263 709 c 1
 258 669 256 638 256 612 c 0xe4
 256 568 261 537 265 505 c 1
 293 501 322 498 348 498 c 0
 403 498 452 513 480 574 c 0
EndSplineSet
Validated: 1
EndChar

StartChar: C
Encoding: 67 67 28
Width: 637
VWidth: 0
Flags: HW
LayerCount: 2
Fore
SplineSet
139 39 m 1
 84 91 27 166 25 241 c 0
 27 312 34 383 52 452 c 0
 76 531 104 604 144 667 c 0
 175 721 223 772 287 785 c 0
 291 786 296 786 300 786 c 0
 337 786 379 762 379 724 c 0
 379 722 379 721 379 719 c 0
 366 676 319 658 279 649 c 0
 212 620 177 552 151 489 c 0
 127 423 110 354 106 284 c 0
 106 225 146 177 182 135 c 0
 214 99 264 77 313 77 c 0
 335 77 357 82 378 91 c 0
 448 115 514 162 578 175 c 0
 602 172 613 150 613 127 c 0
 613 111 608 94 597 84 c 0
 570 58 527 60 497 38 c 0
 433 4 372 -13 314 -13 c 0
 254 -13 196 5 139 39 c 1
EndSplineSet
Validated: 1
EndChar

StartChar: D
Encoding: 68 68 29
Width: 801
VWidth: 0
Flags: W
HStem: -19 164<209 440> -19 133<84.896 301.875> 696 93<322.87 480.466>
VStem: 406 68<492.262 643.637> 664 97<333.943 540.044>
LayerCount: 2
Fore
SplineSet
97 -4 m 0xb8
 74 4 58 31 58 57 c 0
 58 70 62 82 71 91 c 1
 170 106 266 109 300 114 c 1x78
 352 288 381 472 406 630 c 0
 411 645 421 651 431 651 c 0
 451 651 474 628 474 605 c 0
 474 602 474 599 473 596 c 0
 473 593 473 591 473 588 c 0
 473 452 449 315 425 181 c 0
 423 175 421 169 421 164 c 0
 421 152 427 145 437 145 c 0
 443 145 452 148 460 155 c 0
 537 204 659 309 660 398 c 1
 663 414 664 430 664 444 c 0
 664 568 574 634 492 678 c 0
 465 689 435 696 405 696 c 0
 373 696 341 688 314 668 c 1
 299 641 275 611 243 611 c 0
 234 611 225 613 215 618 c 0
 193 629 182 651 182 674 c 0
 182 695 191 716 208 729 c 0
 253 769 313 789 373 789 c 0
 401 789 429 784 455 776 c 0
 541 748 628 708 688 638 c 0
 737 578 761 501 761 424 c 0
 761 370 749 316 725 268 c 0
 684 194 617 138 550 88 c 0
 441 17 342 -19 230 -19 c 0
 188 -19 144 -14 97 -4 c 0xb8
EndSplineSet
Validated: 1
EndChar

StartChar: E
Encoding: 69 69 30
Width: 593
VWidth: 0
Flags: HW
HStem: 645 148<189 490>
LayerCount: 2
Fore
SplineSet
149 -13 m 1
 74 3 25 55 15 129 c 0
 10 168 7 200 7 232 c 0
 7 317 29 396 91 576 c 0
 95 587 90 595 81 595 c 0
 60 595 38 639 38 674 c 0
 38 680 39 685 40 690 c 0
 48 722 115 765 157 765 c 0
 158 765 159 765 160 765 c 0
 162 765 164 765 167 765 c 0
 195 765 280 768 369 772 c 0
 416 774 461 775 496 775 c 0
 535 775 563 774 568 771 c 0
 580 766 586 739 586 714 c 0
 586 692 581 670 571 663 c 0
 556 651 340 624 269 624 c 0
 267 624 264 624 262 624 c 0
 251 625 241 625 233 625 c 0
 162 625 204 600 172 522 c 0
 157 486 139 443 130 426 c 0
 124 415 121 402 121 394 c 0
 121 390 121 387 123 385 c 0
 128 379 197 370 276 366 c 0
 355 362 426 352 434 344 c 0
 441 337 444 328 444 317 c 0
 444 293 428 263 405 252 c 0
 404 251 402 251 400 251 c 0
 382 251 346 283 322 288 c 0
 307 291 290 292 271 292 c 0
 201 292 112 274 95 252 c 0
 88 243 85 230 85 215 c 0
 85 193 92 167 103 143 c 0
 115 118 136 93 150 87 c 0
 165 81 189 78 213 78 c 0
 249 78 286 85 295 96 c 0
 302 105 318 113 329 113 c 0
 340 113 357 123 365 136 c 0
 375 151 385 159 395 159 c 0
 405 159 414 150 419 134 c 0
 421 128 422 122 422 117 c 0
 422 92 401 71 343 32 c 0
 292 -2 248 -18 200 -18 c 0
 184 -18 167 -17 149 -13 c 1
EndSplineSet
Validated: 1
EndChar

StartChar: F
Encoding: 70 70 31
Width: 645
VWidth: 0
Flags: W
HStem: 461 20G<391.5 405> 763 119<487.596 581.636>
VStem: 95 51<258.145 312.011>
LayerCount: 2
Fore
SplineSet
22 16 m 1
 21 19 21 24 21 29 c 0
 21 49 26 81 35 109 c 0
 63 200 95 350 95 387 c 0
 95 422 111 591 129 640 c 1
 97 643 95 643 95 643 c 2
 68 648 62 660 59 715 c 0
 58 724 58 732 58 740 c 0
 58 768 62 785 71 789 c 0
 80 793 163 805 255 816 c 0
 347 827 438 841 460 850 c 0
 482 859 526 871 559 877 c 0
 576 880 589 882 598 882 c 0
 615 882 620 876 620 862 c 0
 620 847 612 829 602 821 c 0
 592 813 582 792 579 773 c 0
 578 765 576 763 569 763 c 0
 559 763 540 768 505 768 c 0
 480 768 448 766 404 756 c 0
 341 747 270 740 194 712 c 1
 188 639 165 547 165 483 c 0
 165 469 167 457 169 446 c 1
 175 444 182 444 191 444 c 0
 253 444 379 481 404 481 c 0
 406 481 407 481 408 480 c 0
 414 472 417 457 417 441 c 0
 417 411 407 376 391 367 c 0
 379 361 328 352 276 346 c 0
 172 335 146 312 146 235 c 0
 146 207 139 162 131 135 c 0
 123 108 115 78 114 68 c 0
 109 19 78 -14 53 -14 c 0
 40 -14 28 -5 22 16 c 1
EndSplineSet
Validated: 1
EndChar

StartChar: G
Encoding: 71 71 32
Width: 644
VWidth: 0
Flags: HW
LayerCount: 2
Fore
SplineSet
149 17 m 1
 103 55 73 110 46 163 c 0
 29 197 23 234 23 271 c 0
 23 318 33 366 43 411 c 0
 75 535 126 658 213 754 c 0
 247 789 286 827 336 835 c 0
 337 835 l 0
 364 835 374 814 374 790 c 0
 374 771 367 750 359 737 c 0
 337 710 298 713 276 683 c 0
 216 607 125 500 120 420 c 0
 109 379 98 336 98 293 c 0
 98 271 101 249 109 227 c 0
 131 164 173 97 242 81 c 0
 246 80 251 80 255 80 c 0
 293 80 327 106 359 121 c 0
 396 135 424 162 456 182 c 0
 489 192 498 233 506 263 c 0
 508 274 511 287 511 300 c 0
 511 321 505 341 484 341 c 0
 480 341 475 340 469 338 c 0
 455 337 438 333 421 333 c 0
 400 333 381 339 373 361 c 0
 370 376 367 393 367 409 c 0
 367 429 372 449 387 463 c 0
 408 476 432 480 457 480 c 0
 478 480 499 477 519 476 c 0
 555 474 589 452 598 416 c 0
 601 401 608 381 608 363 c 0
 608 350 604 339 593 332 c 1
 587 316 585 300 585 284 c 0
 585 263 588 241 588 219 c 0
 588 216 588 212 588 209 c 0
 588 206 588 202 588 199 c 0
 588 185 588 172 588 158 c 0
 588 130 586 103 574 78 c 0
 565 65 560 61 555 61 c 0
 543 61 539 93 515 93 c 0
 514 93 514 93 513 93 c 0
 481 83 409 68 387 42 c 1
 351 29 323 13 290 7 c 0
 270 6 249 4 228 4 c 0
 201 4 174 7 149 17 c 1
EndSplineSet
Validated: 1
EndChar

StartChar: H
Encoding: 72 72 33
Width: 636
VWidth: 0
Flags: W
VStem: 73 103<-48.3811 37.5778> 73 89<-3.29761 38.7195> 245 65<645.082 722.458> 439 84<16.0732 207.704>
LayerCount: 2
Fore
SplineSet
57 -56 m 0xb0
 55 -50 54 -45 54 -40 c 0
 54 -17 73 0 73 23 c 0xb0
 73 28 72 33 70 39 c 1
 76 114 112 183 115 258 c 1
 143 336 174 423 185 498 c 0
 202 570 220 641 245 711 c 0
 251 723 261 728 270 728 c 0
 290 728 310 707 310 685 c 0
 310 680 309 675 307 670 c 0
 296 620 272 573 260 523 c 0
 240 447 219 371 200 295 c 0
 198 290 198 285 198 282 c 0
 198 272 204 268 213 268 c 0
 232 268 263 282 278 282 c 0
 338 293 393 322 454 328 c 0
 457 327 460 327 463 327 c 0
 502 327 503 379 510 409 c 0
 532 528 540 648 547 769 c 1
 550 771 552 772 555 772 c 0
 572 772 591 732 596 716 c 0
 598 710 599 700 599 685 c 0
 599 621 584 484 577 403 c 0
 568 289 523 173 523 58 c 0
 523 31 498 6 475 6 c 0
 463 6 451 12 444 28 c 0
 441 40 439 53 439 65 c 0
 439 113 459 161 461 210 c 0
 458 225 449 230 438 230 c 0
 417 230 389 213 371 208 c 0
 306 182 191 196 186 185 c 0
 171 142 162 97 162 51 c 0
 162 46 162 42 162 37 c 1x70
 172 25 176 11 176 -4 c 0
 176 -26 166 -48 148 -63 c 0
 136 -79 113 -92 93 -92 c 0
 78 -92 64 -84 59 -64 c 0
 59 -61 57 -59 57 -56 c 0xb0
EndSplineSet
Validated: 1
EndChar

StartChar: I
Encoding: 73 73 34
Width: 286
VWidth: 0
Flags: W
HStem: 15 21G<57 69> 814 20G<220.5 249.5>
VStem: 188 87<722.181 818.18>
LayerCount: 2
Fore
SplineSet
26 37 m 0
 18 50 15 62 15 76 c 0
 15 103 26 131 30 157 c 0
 48 321 104 457 129 605 c 0
 143 662 171 713 188 769 c 0
 200 792 205 831 236 834 c 0
 263 833 275 812 275 790 c 0
 275 780 273 769 268 760 c 0
 221 644 219 535 183 427 c 0
 159 332 144 235 132 137 c 0
 130 96 127 47 90 22 c 0
 82 17 73 15 65 15 c 0
 49 15 34 23 26 37 c 0
EndSplineSet
Validated: 1
EndChar

StartChar: J
Encoding: 74 74 35
Width: 563
VWidth: 0
Flags: W
HStem: -189 98<126.594 222.64> 700 99<274.041 466.819>
VStem: 20 106<-87.7159 -15.3841> 469 77<573.877 697.404>
LayerCount: 2
Fore
SplineSet
68 -171 m 1
 30 -153 20 -132 20 -75 c 0
 20 -29 53 7 87 7 c 0
 95 7 103 5 111 1 c 0
 123 -6 127 -17 127 -36 c 0
 127 -40 127 -44 127 -48 c 0
 126 -55 126 -60 126 -65 c 0
 126 -84 133 -88 159 -90 c 0
 163 -90 168 -91 172 -91 c 0
 228 -91 269 -47 315 59 c 0
 339 114 358 166 358 175 c 0
 391 284 415 374 435 489 c 0
 442 529 451 578 457 598 c 0
 465 625 469 645 469 661 c 0
 469 688 456 700 427 700 c 0
 411 700 389 697 362 690 c 0
 330 683 295 678 273 678 c 0
 265 678 259 679 255 680 c 0
 231 687 213 714 213 736 c 0
 213 743 214 749 218 754 c 0
 233 776 351 798 449 799 c 2
 546 797 l 1
 546 748 528 583 517 537 c 0
 506 491 491 426 484 393 c 0
 477 360 468 325 465 315 c 0
 462 305 448 248 435 189 c 0
 383 -45 267 -189 143 -189 c 0
 118 -189 93 -183 68 -171 c 1
EndSplineSet
Validated: 1
EndChar

StartChar: K
Encoding: 75 75 36
Width: 566
VWidth: 0
Flags: HW
LayerCount: 2
Fore
SplineSet
24 37 m 0
 14 47 10 59 10 71 c 0
 10 94 23 119 30 140 c 0
 41 173 36 208 49 241 c 0
 92 420 128 600 163 781 c 0
 176 816 165 867 195 892 c 1
 196 892 l 0
 229 892 247 862 247 833 c 0
 247 823 245 814 241 805 c 0
 218 758 213 703 201 652 c 0
 183 562 170 471 143 383 c 0
 143 382 143 381 143 380 c 0
 143 367 150 362 160 362 c 0
 181 362 216 383 224 394 c 0
 260 436 275 489 315 528 c 1
 353 590 376 661 392 732 c 0
 398 761 387 823 426 823 c 0
 431 823 436 822 442 820 c 0
 470 818 491 796 491 770 c 0
 491 762 489 754 485 746 c 0
 453 640 405 539 349 444 c 0
 323 402 282 358 262 312 c 1
 303 250 400 222 458 193 c 1
 504 187 544 149 560 106 c 0
 563 98 565 89 565 80 c 0
 565 52 549 24 520 20 c 0
 467 28 525 62 431 92 c 1
 314 183 238 207 155 234 c 1
 110 234 110 152 105 119 c 0
 104 112 103 105 103 97 c 0
 103 88 104 78 104 69 c 0
 104 46 101 24 79 14 c 0
 75 13 72 13 68 13 c 0
 50 13 35 24 24 37 c 0
EndSplineSet
Validated: 1
EndChar

StartChar: L
Encoding: 76 76 37
Width: 488
VWidth: 0
Flags: HW
LayerCount: 2
Fore
SplineSet
106 4 m 0
 75 6 34 9 22 44 c 0
 13 67 10 91 10 113 c 0
 10 182 42 247 50 309 c 0
 77 440 100 571 124 703 c 0
 130 738 151 746 156 780 c 0
 159 802 167 819 179 819 c 0
 186 819 194 813 204 799 c 0
 223 772 230 759 230 738 c 0
 230 728 228 717 226 703 c 0
 211 605 193 517 170 421 c 0
 158 385 144 341 136 303 c 0
 123 250 108 196 106 141 c 0
 115 106 164 112 191 102 c 0
 209 99 225 98 241 98 c 0
 288 98 332 108 383 108 c 0
 385 108 386 108 388 108 c 0
 389 108 l 0
 422 108 410 39 438 39 c 0
 441 39 444 40 447 41 c 1
 476 15 l 1
 382 15 260 3 158 3 c 0
 140 3 122 3 106 4 c 0
EndSplineSet
Validated: 1
EndChar

StartChar: M
Encoding: 77 77 38
Width: 561
VWidth: 0
Flags: HW
LayerCount: 2
Fore
SplineSet
383 -12 m 0
 376 -3 351 -8 351 2 c 0
 351 3 l 0
 373 163 386 309 417 468 c 0
 419 474 420 478 420 483 c 0
 420 498 410 507 398 507 c 0
 388 507 376 501 367 488 c 1
 348 475 326 470 302 470 c 0
 286 470 269 472 253 476 c 1
 236 493 219 501 205 501 c 0
 187 501 174 487 173 457 c 0
 163 375 156 292 134 212 c 0
 122 162 119 111 108 61 c 0
 106 40 84 20 63 20 c 0
 54 20 46 23 39 32 c 0
 33 48 31 65 31 82 c 0
 31 111 37 141 40 169 c 0
 58 283 89 396 89 512 c 0
 94 579 99 646 115 711 c 0
 120 726 127 732 135 732 c 0
 154 732 179 701 187 684 c 0
 199 615 231 598 276 580 c 0
 294 576 313 572 330 572 c 0
 351 572 370 577 383 593 c 0
 416 635 435 664 452 770 c 0
 459 785 469 791 480 791 c 0
 500 791 520 769 520 745 c 0
 520 744 520 744 520 743 c 0
 520 737 520 730 520 724 c 0
 520 658 507 593 499 527 c 0
 489 456 476 386 462 316 c 0
 453 200 441 84 421 -30 c 0
 419 -43 417 -48 414 -48 c 0
 408 -48 398 -27 383 -12 c 0
EndSplineSet
Validated: 1
EndChar

StartChar: N
Encoding: 78 78 39
Width: 623
VWidth: 0
Flags: HW
LayerCount: 2
Fore
SplineSet
288 -26 m 0
 227 150 240 335 199 499 c 1
 154 340 165 181 123 34 c 0
 120 12 89 2 65 2 c 0
 48 2 34 7 34 16 c 0
 34 19 36 24 40 28 c 0
 67 68 62 121 70 168 c 0
 99 366 126 497 153 667 c 0
 152 670 152 674 152 677 c 0
 152 704 168 743 190 743 c 0
 197 743 205 739 213 730 c 0
 239 697 244 651 256 611 c 0
 294 427 305 277 325 109 c 1
 399 347 426 486 482 685 c 0
 499 760 516 835 526 911 c 0
 528 934 540 943 553 943 c 0
 570 943 588 927 588 905 c 0
 588 902 588 899 587 895 c 0
 535 576 382 32 327 -53 c 0
 324 -55 321 -56 318 -56 c 0
 305 -56 295 -37 288 -26 c 0
EndSplineSet
Validated: 1
EndChar

StartChar: O
Encoding: 79 79 40
Width: 510
VWidth: 0
Flags: W
HStem: 14 115<128.46 209.012> 758 108<238.286 304.381>
VStem: 29 69<162.416 418.838> 329 145<654.569 731.496>
LayerCount: 2
Fore
SplineSet
128 23 m 0
 93 47 74 88 54 124 c 0
 35 160 29 200 29 240 c 0
 29 277 34 314 38 350 c 0
 47 418 65 483 87 548 c 0
 114 643 138 744 199 824 c 0
 216 848 245 866 274 866 c 0
 284 866 294 864 304 859 c 0
 333 845 360 823 375 795 c 1
 409 794 455 800 464 754 c 0
 471 729 474 703 474 677 c 0
 474 629 464 582 456 535 c 0
 427 406 385 280 324 163 c 0
 291 106 255 40 188 18 c 0
 182 15 176 14 169 14 c 0
 155 14 141 19 128 23 c 0
234 174 m 0
 296 239 331 326 354 412 c 0
 376 487 395 562 405 639 c 0
 410 665 389 652 390 634 c 0
 381 612 377 586 359 570 c 1
 339 577 329 602 328 624 c 0
 329 629 329 634 329 639 c 0
 329 668 319 696 310 723 c 0
 306 740 289 758 272 758 c 0
 266 758 260 756 254 751 c 0
 218 721 200 676 182 634 c 0
 136 520 112 398 100 276 c 0
 99 266 98 257 98 247 c 0
 98 217 105 186 122 160 c 0
 131 146 147 129 165 129 c 0
 169 129 173 130 178 132 c 0
 200 142 218 157 234 174 c 0
EndSplineSet
Validated: 1
EndChar

StartChar: P
Encoding: 80 80 41
Width: 589
VWidth: 0
Flags: W
HStem: 334 98<258.54 317.422> 743 88<187.12 372.398>
VStem: 472 93<603.16 685.492>
LayerCount: 2
Fore
SplineSet
74 23 m 0
 74 25 74 28 74 30 c 0
 74 73 91 114 101 156 c 0
 136 266 167 377 201 488 c 0
 213 518 250 686 279 705 c 1
 295 705 301 674 301 636 c 0
 301 582 289 513 278 496 c 0
 275 482 258 452 258 439 c 0
 258 435 260 432 264 432 c 0
 268 432 274 434 282 438 c 0
 360 464 423 527 460 600 c 0
 468 613 472 627 472 641 c 0
 472 664 461 685 436 694 c 0
 387 721 332 735 277 742 c 0
 272 743 268 743 263 743 c 0
 207 743 158 706 121 666 c 0
 100 648 78 622 49 622 c 0
 46 622 43 622 40 623 c 1
 33 631 30 640 30 649 c 0
 30 674 50 702 61 722 c 0
 101 787 173 831 250 831 c 0
 251 831 252 831 253 831 c 0
 340 831 423 801 499 762 c 0
 530 740 565 711 565 671 c 0
 565 670 565 670 565 669 c 0
 551 614 525 561 495 513 c 0
 450 445 397 378 324 340 c 0
 316 334 306 333 296 333 c 0
 289 333 281 334 274 334 c 0
 259 334 245 330 239 309 c 0
 195 218 174 117 129 26 c 0
 124 11 113 3 101 3 c 0
 90 3 80 10 74 23 c 0
EndSplineSet
Validated: 1
EndChar

StartChar: Q
Encoding: 81 81 42
Width: 740
VWidth: 0
Flags: W
HStem: 17 70<284.897 345.744> 723 65<379.73 540.963>
VStem: 30 102<277.086 476.852> 465 53<66 144> 553 92<350.87 711.797>
LayerCount: 2
Fore
SplineSet
632 -98 m 1
 592 -69 547 -84 510 -67 c 0
 457 -54 437 11 382 20 c 0
 367 18 351 17 335 17 c 0
 292 17 249 25 215 53 c 0
 132 132 30 267 30 369 c 0
 30 374 30 380 31 385 c 0
 43 504 112 610 197 691 c 0
 244 737 304 768 370 776 c 0
 406 782 443 788 481 788 c 0
 519 788 557 782 591 762 c 0
 642 730 637 664 642 612 c 0
 644 585 645 558 645 532 c 0
 645 415 625 306 578 206 c 0
 561 158 520 118 518 66 c 1
 538 25 610 -3 654 -8 c 1
 664 -4 673 -2 682 -2 c 0
 698 -2 710 -9 710 -27 c 0
 710 -34 708 -42 704 -52 c 0
 694 -71 652 -109 637 -109 c 0
 633 -109 632 -107 632 -102 c 0
 632 -101 632 -99 632 -98 c 1
320 186 m 0
 319 200 318 207 318 212 c 0
 318 220 320 224 325 243 c 0
 329 257 341 263 353 263 c 0
 364 263 375 258 383 249 c 0
 411 226 416 189 430 158 c 0
 433 147 448 129 457 129 c 0
 461 129 465 133 465 144 c 0
 477 196 508 241 518 293 c 0
 533 348 539 398 546 454 c 0
 550 505 553 560 553 613 c 0
 553 631 553 649 552 666 c 0
 552 694 532 723 502 723 c 0
 501 723 500 723 499 723 c 0
 496 723 494 723 491 723 c 0
 389 723 292 669 226 593 c 0
 172 533 132 455 132 372 c 0
 132 368 132 364 132 360 c 0
 154 260 182 148 269 119 c 0
 284 109 320 87 337 87 c 0
 343 87 346 89 346 95 c 0
 346 97 346 99 345 102 c 0
 344 115 321 174 320 186 c 0
EndSplineSet
Validated: 1
EndChar

StartChar: R
Encoding: 82 82 43
Width: 708
VWidth: 0
Flags: W
HStem: 16 21G<129.5 139.5> 27 102<445.004 545.036> 731 76<181.238 336.256>
VStem: 439 59<574.178 665.384>
LayerCount: 2
Fore
SplineSet
445 39 m 0x70
 372 82 342 152 292 208 c 0
 269 238 241 264 214 290 c 0
 210 297 208 303 208 309 c 0
 208 338 245 363 265 381 c 0
 354 446 393 518 432 606 c 0
 437 614 439 620 439 627 c 0
 439 656 403 677 379 690 c 0
 337 710 290 731 243 731 c 0
 237 731 231 731 224 730 c 0
 164 714 133 653 89 615 c 0
 81 606 73 603 66 603 c 0
 49 603 37 623 37 644 c 0
 37 650 38 657 40 662 c 0
 58 728 117 777 180 799 c 0
 200 804 220 807 240 807 c 0
 312 807 384 776 439 731 c 0
 470 706 498 667 498 626 c 0
 498 615 496 603 491 592 c 0
 459 499 409 411 346 336 c 0
 338 326 330 316 322 306 c 0
 344 274 372 245 384 208 c 1
 416 169 457 129 510 129 c 0
 511 129 511 129 512 129 c 1
 554 148 609 213 654 213 c 0
 661 213 667 211 674 208 c 1
 679 201 681 193 681 186 c 0
 681 160 655 133 640 113 c 0
 604 69 554 32 495 27 c 0
 493 27 490 27 488 27 c 0
 473 27 458 32 445 39 c 0x70
107 47 m 0
 101 63 98 79 98 96 c 0
 98 129 108 164 116 196 c 0
 150 301 137 407 176 509 c 0
 189 561 187 616 200 668 c 0
 201 681 210 690 219 690 c 0
 226 690 233 685 236 675 c 0
 245 660 247 643 247 626 c 0
 247 613 246 599 246 587 c 0
 244 553 239 519 227 487 c 0
 214 413 213 339 202 265 c 0
 192 192 186 117 162 47 c 0
 160 31 146 16 133 16 c 0xb0
 126 16 119 20 115 31 c 0
 112 36 109 41 107 47 c 0
EndSplineSet
Validated: 1
EndChar

StartChar: S
Encoding: 83 83 44
Width: 607
VWidth: 0
Flags: W
HStem: -2 110<153.672 314.373> 729 97<310.379 536.806>
VStem: 152 101<559.701 695.625> 342 121<135.766 255.693>
LayerCount: 2
Fore
SplineSet
128 22 m 0
 70 53 6 93 -14 160 c 0
 -16 167 -17 174 -17 181 c 0
 -17 215 4 251 39 258 c 0
 87 258 97 174 130 147 c 0
 156 121 207 108 250 108 c 0
 260 108 270 108 279 110 c 0
 309 114 342 152 342 189 c 0
 342 190 342 190 342 191 c 0
 325 269 293 342 258 413 c 0
 241 445 215 472 200 506 c 0
 175 551 152 600 152 651 c 0
 152 665 154 680 158 694 c 0
 162 734 190 765 226 780 c 0
 285 808 352 826 419 826 c 0
 451 826 483 822 514 813 c 0
 545 805 575 779 575 746 c 0
 575 742 575 737 574 733 c 0
 568 722 557 719 543 719 c 0
 518 719 485 729 462 729 c 0
 458 729 454 729 451 728 c 0
 396 718 316 714 264 694 c 1
 256 684 253 668 253 650 c 0
 253 621 260 588 262 568 c 0
 304 422 433 329 460 198 c 0
 462 191 463 184 463 178 c 0
 463 147 443 122 423 97 c 0
 383 53 338 8 276 1 c 0
 262 -1 248 -2 234 -2 c 0
 197 -2 161 5 128 22 c 0
EndSplineSet
Validated: 1
EndChar

StartChar: T
Encoding: 84 84 45
Width: 631
VWidth: 0
Flags: W
HStem: 713 61<128.847 291.519> 724 97<403.733 565.247>
VStem: 164 103<29.4219 115.642>
LayerCount: 2
Fore
SplineSet
174 29 m 1x60
 167 38 164 47 164 57 c 0
 164 88 192 124 199 154 c 0
 245 309 264 465 290 625 c 0
 294 648 297 668 297 682 c 0
 297 702 291 713 278 713 c 0
 277 713 276 713 274 713 c 0
 220 708 118 709 50 646 c 1
 38 691 25 701 23 748 c 1
 49 777 97 771 132 775 c 0
 140 774 149 774 159 774 c 0xa0
 252 774 397 809 496 820 c 0
 499 820 509 821 521 821 c 0
 553 821 602 814 602 770 c 0
 602 760 599 748 593 733 c 0
 586 719 577 715 566 715 c 0
 550 715 530 724 511 724 c 0
 510 724 509 724 508 724 c 0
 503 724 498 723 492 723 c 0
 485 723 478 724 470 724 c 0
 440 724 410 721 396 691 c 0
 361 622 353 544 342 469 c 0
 327 323 301 178 267 35 c 0
 265 10 249 1 230 1 c 0
 209 1 186 13 174 29 c 1x60
EndSplineSet
Validated: 1
EndChar

StartChar: U
Encoding: 85 85 46
Width: 696
VWidth: 0
Flags: HW
LayerCount: 2
Fore
SplineSet
153 14 m 1
 80 98 56 209 56 319 c 0
 56 341 57 363 59 385 c 0
 70 519 107 649 144 777 c 0
 146 796 152 810 163 810 c 0
 171 810 182 804 197 788 c 0
 208 779 212 759 212 731 c 0
 212 620 147 385 147 231 c 0
 147 209 148 190 151 172 c 0
 157 145 168 112 190 112 c 0
 197 112 205 115 214 123 c 1
 290 249 350 371 408 489 c 1
 463 538 471 580 471 626 c 0
 471 644 470 662 470 681 c 0
 470 694 470 708 472 722 c 0
 477 779 489 840 516 892 c 0
 523 900 529 903 533 903 c 0
 552 903 548 840 550 821 c 0
 554 758 554 696 554 633 c 0
 554 607 554 582 554 556 c 0
 554 483 555 410 561 337 c 0
 567 255 576 171 621 100 c 0
 635 87 644 65 644 44 c 0
 644 22 634 2 608 -1 c 1
 540 50 483 162 474 235 c 0
 465 302 458 335 451 403 c 1
 398 303 345 153 276 56 c 0
 255 30 221 5 187 5 c 0
 176 5 164 7 153 14 c 1
EndSplineSet
Validated: 1
EndChar

StartChar: V
Encoding: 86 86 47
Width: 657
VWidth: 0
Flags: W
HStem: 842 20G<66 80>
LayerCount: 2
Fore
SplineSet
170 14 m 1
 171 22 171 29 171 37 c 0
 171 68 165 98 150 126 c 0
 105 311 80 500 54 689 c 0
 52 727 43 765 43 803 c 0
 43 816 44 829 47 842 c 0
 54 856 62 862 70 862 c 0
 90 862 109 822 111 801 c 0
 140 611 175 429 198 252 c 0
 203 235 197 203 212 203 c 0
 216 203 221 205 229 211 c 1
 341 466 429 695 549 914 c 0
 553 925 567 930 581 930 c 0
 598 930 615 922 615 908 c 0
 615 904 613 899 610 894 c 0
 482 610 362 291 239 37 c 0
 231 20 211 -1 193 -1 c 0
 185 -1 177 4 170 14 c 1
EndSplineSet
Validated: 1
EndChar

StartChar: W
Encoding: 87 87 48
Width: 853
VWidth: 0
Flags: W
HStem: -4 101<433.42 488.545>
VStem: 27 83<38.755 329.904> 74 84<357.666 588.572> 304 86<303.196 432.079>
LayerCount: 2
Fore
SplineSet
57 -30 m 1xd0
 35 15 27 70 27 127 c 0xd0
 27 233 54 348 66 428 c 0
 72 445 74 464 74 482 c 0
 74 505 71 529 71 552 c 0
 71 572 73 591 81 610 c 1
 85 612 90 613 95 613 c 0
 126 613 158 566 158 539 c 0xb0
 158 537 157 535 157 533 c 0
 149 415 123 299 113 181 c 0
 111 169 110 151 110 133 c 0
 110 91 117 43 145 28 c 1
 192 35 226 147 244 202 c 0
 317 382 279 314 304 405 c 0
 305 426 325 436 346 436 c 0
 368 436 390 425 390 404 c 0
 390 401 390 398 389 395 c 0
 388 376 388 358 388 341 c 0
 388 170 423 126 451 101 c 0
 455 99 459 97 463 97 c 0
 482 97 491 127 510 156 c 0
 575 266 611 403 618 520 c 0
 637 623 677 726 712 825 c 0
 718 851 749 889 776 889 c 0
 787 889 797 883 804 866 c 0
 806 856 807 845 807 834 c 0
 807 803 799 772 780 750 c 0
 746 678 733 600 722 521 c 0
 697 353 581 -4 453 -4 c 0
 436 -4 420 2 403 15 c 0
 362 47 349 99 332 146 c 0
 329 149 326 151 323 151 c 0
 307 151 300 98 287 86 c 0
 255 29 226 -39 166 -71 c 0
 155 -77 143 -79 132 -79 c 0
 101 -79 71 -59 57 -30 c 1xd0
EndSplineSet
Validated: 1
EndChar

StartChar: X
Encoding: 88 88 49
Width: 582
VWidth: 0
Flags: HW
LayerCount: 2
Fore
SplineSet
40 17 m 1
 27 27 20 36 20 48 c 0
 20 66 35 91 69 140 c 0
 154 264 211 362 211 391 c 0
 211 406 189 475 165 545 c 0
 133 637 100 738 83 738 c 0
 78 738 73 737 70 737 c 0
 59 737 56 743 56 793 c 0
 56 821 96 862 124 862 c 0
 159 862 168 801 227 635 c 0
 251 566 283 501 287 501 c 0
 292 501 337 559 484 759 c 0
 499 780 525 792 544 792 c 0
 557 792 567 787 567 774 c 0
 567 764 523 695 467 620 c 0
 315 416 370 498 313 368 c 1
 333 300 404 137 416 120 c 0
 427 105 431 85 431 67 c 0
 431 40 421 16 404 16 c 0
 403 16 l 0
 368 17 330 72 287 184 c 0
 261 252 250 276 240 276 c 0
 235 276 230 270 223 261 c 0
 211 245 176 178 145 115 c 0
 105 32 88 2 69 2 c 0
 61 2 52 8 40 17 c 1
EndSplineSet
Validated: 1
EndChar

StartChar: Y
Encoding: 89 89 50
Width: 669
VWidth: 0
Flags: W
VStem: 30 84<-190.15 -98.1443> 248 143<300.5 375>
LayerCount: 2
Fore
SplineSet
40 -169 m 2
 34 -155 30 -145 30 -135 c 0
 30 -119 38 -103 57 -67 c 0
 102 8 136 92 167 164 c 0
 185 207 220 255 232 273 c 0
 243 288 248 297 248 304 c 0
 248 311 242 317 229 329 c 0
 131 418 94 478 57 618 c 0
 47 654 43 685 43 708 c 0
 43 740 52 758 68 758 c 0
 69 758 70 758 72 758 c 0
 96 753 123 723 157 613 c 0
 207 453 228 402 281 402 c 0
 291 402 305 431 320 456 c 0
 335 481 355 511 355 511 c 2
 359 514 383 555 415 603 c 0
 447 651 496 697 510 717 c 0
 547 770 595 808 619 808 c 0
 628 808 634 802 634 790 c 0
 634 774 548 645 526 629 c 0
 522 626 504 599 486 571 c 0
 465 537 367 429 367 396 c 0
 367 390 371 386 379 386 c 0
 380 386 381 386 382 386 c 1
 388 383 391 378 391 372 c 0
 391 344 326 295 319 279 c 0
 266 203 252 94 208 32 c 0
 174 -31 129 -93 114 -159 c 0
 107 -190 93 -206 78 -206 c 0
 65 -206 51 -194 40 -169 c 2
EndSplineSet
Validated: 1
EndChar

StartChar: Z
Encoding: 90 90 51
Width: 648
VWidth: 0
Flags: HW
LayerCount: 2
Fore
SplineSet
176 14 m 0
 135 25 113 68 73 82 c 1
 40 115 31 149 31 182 c 0
 31 219 43 256 46 294 c 1
 60 305 66 315 66 322 c 0
 66 343 25 351 25 363 c 0
 25 366 27 369 32 372 c 0
 58 394 102 377 124 413 c 1
 187 459 237 521 283 583 c 0
 300 610 324 638 324 671 c 0
 324 672 324 672 324 673 c 1
 295 696 255 698 220 700 c 0
 168 698 111 671 59 671 c 0
 34 676 26 704 26 729 c 0
 26 738 27 747 29 755 c 1
 70 790 149 806 227 806 c 0
 311 806 392 787 425 752 c 0
 440 741 446 727 446 712 c 0
 446 694 439 676 430 660 c 0
 394 569 326 498 274 417 c 0
 272 413 271 410 271 407 c 0
 271 400 278 397 289 397 c 0
 305 397 327 402 337 402 c 0
 338 402 l 0
 341 402 345 402 348 402 c 0
 381 402 420 393 432 359 c 0
 433 355 434 351 434 347 c 0
 434 317 400 298 372 293 c 0
 317 277 259 277 202 274 c 0
 167 267 127 241 127 202 c 0
 138 161 185 146 222 137 c 0
 243 133 266 131 290 131 c 0
 357 131 432 146 489 162 c 0
 524 165 511 207 543 207 c 0
 544 207 545 207 546 207 c 1
 551 208 556 209 561 209 c 0
 587 209 612 192 612 166 c 0
 612 160 611 154 608 147 c 0
 593 95 537 73 491 56 c 0
 412 31 328 17 246 7 c 0
 240 7 235 6 229 6 c 0
 211 6 193 9 176 14 c 0
EndSplineSet
Validated: 1
EndChar

StartChar: comma
Encoding: 44 44 52
Width: 179
VWidth: 0
Flags: HW
LayerCount: 2
Fore
SplineSet
14 -157 m 0
 9 -145 6 -135 6 -125 c 0
 6 -107 15 -89 33 -65 c 0
 48 -46 69 1 81 38 c 0
 98 93 113 117 128 117 c 0
 133 117 138 115 143 110 c 0
 150 104 154 93 154 78 c 0
 154 46 139 -6 109 -79 c 0
 75 -164 70 -171 47 -174 c 0
 44 -174 42 -174 40 -174 c 0
 27 -174 19 -169 14 -157 c 0
EndSplineSet
Validated: 1
EndChar

StartChar: hyphen
Encoding: 45 45 53
Width: 512
VWidth: 0
Flags: HW
LayerCount: 2
Fore
SplineSet
102 328 m 1
 93 340 89 355 89 370 c 0
 89 413 120 462 153 462 c 0
 157 462 160 461 164 460 c 0
 178 456 235 452 296 452 c 0
 303 452 311 452 318 452 c 0
 329 452 339 452 348 452 c 0
 428 452 455 445 455 416 c 0
 455 405 451 392 445 374 c 0
 436 346 423 339 377 332 c 0
 311 323 238 318 184 318 c 0
 139 318 107 321 102 328 c 2
 102 328 l 1
EndSplineSet
Validated: 1
EndChar

StartChar: period
Encoding: 46 46 54
Width: 201
VWidth: 0
Flags: HW
LayerCount: 2
Fore
SplineSet
61 24 m 2
 51 35 47 47 47 61 c 0
 47 65 47 70 48 75 c 0
 57 119 71 133 108 133 c 0
 136 133 144 127 152 102 c 0
 158 84 161 74 161 65 c 0
 161 53 155 44 141 27 c 0
 128 10 114 2 100 2 c 0
 87 2 74 9 61 24 c 1
 61 24 l 2
EndSplineSet
Validated: 1
EndChar

StartChar: zero
Encoding: 48 48 55
Width: 578
VWidth: 0
Flags: HW
LayerCount: 2
Fore
SplineSet
136 17 m 0
 94 37 53 67 40 114 c 0
 26 151 18 190 18 229 c 0
 18 246 20 263 23 280 c 0
 32 356 40 433 67 506 c 0
 92 600 135 691 200 764 c 0
 232 803 283 819 332 819 c 0
 338 819 343 818 349 818 c 0
 351 818 352 818 354 818 c 0
 388 818 420 801 442 774 c 0
 480 738 504 689 507 637 c 0
 506 633 506 628 506 624 c 0
 506 598 520 579 546 574 c 1
 548 566 548 557 548 549 c 0
 548 519 540 489 537 460 c 0
 517 326 478 193 400 81 c 0
 372 42 333 5 283 2 c 0
 268 0 253 -1 238 -1 c 0
 203 -1 168 4 136 17 c 0
280 105 m 0
 327 125 346 177 366 220 c 0
 388 274 431 379 435 437 c 0
 435 458 418 497 418 521 c 0
 418 522 418 524 418 525 c 0
 414 597 414 600 396 671 c 0
 392 694 375 713 352 713 c 0
 349 713 346 713 342 712 c 0
 289 711 238 677 216 629 c 0
 188 569 173 504 151 444 c 0
 143 401 128 361 125 317 c 0
 123 292 121 266 121 241 c 0
 121 214 123 187 129 161 c 0
 138 135 165 120 187 106 c 0
 201 98 216 89 232 89 c 0
 238 89 245 91 251 94 c 0
 261 97 270 101 280 105 c 0
EndSplineSet
Validated: 1
EndChar

StartChar: one
Encoding: 49 49 56
Width: 332
VWidth: 0
Flags: HW
LayerCount: 2
Fore
SplineSet
29 5 m 2
 11 9 1 25 1 42 c 0
 1 54 6 67 16 76 c 0
 24 84 38 115 47 147 c 0
 56 179 86 283 113 379 c 0
 140 475 163 568 163 586 c 0
 163 604 161 611 153 611 c 0
 148 611 141 608 129 603 c 0
 114 596 98 592 83 592 c 0
 49 592 19 610 13 639 c 0
 11 649 10 656 10 663 c 0
 10 688 26 699 83 730 c 0
 115 747 155 775 171 791 c 0
 191 810 216 819 240 819 c 0
 277 819 310 797 310 760 c 0
 310 746 300 707 288 673 c 0
 251 568 238 521 146 145 c 0
 138 112 131 64 131 40 c 0
 131 9 122 -5 91 -5 c 0
 76 -5 55 -1 29 5 c 2
 29 5 l 2
EndSplineSet
Validated: 1
EndChar

StartChar: two
Encoding: 50 50 57
Width: 713
VWidth: 0
Flags: HW
LayerCount: 2
Fore
SplineSet
96 36 m 0
 63 37 34 61 34 93 c 0
 34 97 35 102 36 106 c 0
 48 180 89 246 124 309 c 0
 170 387 211 470 229 559 c 0
 231 564 232 568 232 572 c 0
 232 587 221 597 208 597 c 0
 200 597 191 593 184 585 c 0
 143 555 117 510 97 464 c 0
 90 448 79 442 67 442 c 0
 48 442 28 459 26 483 c 0
 23 493 22 502 22 512 c 0
 22 563 57 611 90 647 c 0
 123 681 169 712 217 712 c 0
 229 712 242 710 254 706 c 0
 282 698 299 671 299 643 c 0
 299 638 298 632 297 627 c 0
 288 529 257 436 225 343 c 0
 215 309 222 302 185 244 c 0
 175 232 170 214 170 198 c 0
 170 177 179 158 200 150 c 1
 263 160 351 195 402 226 c 0
 473 262 538 308 605 352 c 0
 620 359 640 367 658 367 c 0
 671 367 682 363 691 353 c 1
 693 346 694 338 694 329 c 0
 694 299 682 265 651 261 c 1
 623 241 600 215 570 198 c 0
 518 165 465 134 412 102 c 0
 337 72 260 49 181 33 c 0
 172 32 162 32 153 32 c 0
 134 32 115 33 96 36 c 0
EndSplineSet
Validated: 1
EndChar

StartChar: three
Encoding: 51 51 58
Width: 492
VWidth: 0
Flags: HW
LayerCount: 2
Fore
SplineSet
76 19 m 0
 37 24 5 59 5 98 c 0
 5 99 5 99 5 100 c 0
 5 104 4 108 4 112 c 0
 4 161 37 204 86 204 c 0
 87 204 87 204 88 204 c 0
 116 204 107 202 125 180 c 0
 146 169 219 147 268 147 c 0
 290 147 307 151 313 163 c 0
 334 186 343 204 343 223 c 0
 343 235 339 249 333 264 c 0
 314 298 296 333 263 355 c 0
 231 380 200 408 174 439 c 0
 163 453 154 472 154 490 c 0
 154 502 158 515 169 524 c 0
 186 540 212 542 238 542 c 0
 245 542 252 542 259 542 c 0
 284 542 309 543 327 558 c 0
 356 578 367 633 367 674 c 0
 367 679 367 684 367 688 c 1
 358 700 345 704 331 704 c 0
 311 704 289 696 271 695 c 0
 213 684 146 685 104 641 c 0
 87 621 65 610 45 610 c 0
 27 610 10 619 3 642 c 0
 -1 650 -3 659 -3 667 c 0
 -3 700 26 730 51 749 c 0
 120 799 208 803 290 808 c 0
 328 804 387 806 419 781 c 0
 423 775 428 773 433 773 c 0
 447 773 464 788 474 788 c 0
 479 788 481 785 481 775 c 0
 481 773 481 771 481 769 c 0
 478 720 458 631 441 586 c 0
 423 541 398 500 368 462 c 1
 344 447 336 435 336 426 c 0
 336 400 402 389 412 366 c 0
 431 332 440 295 440 257 c 0
 440 178 402 98 339 50 c 0
 288 19 225 15 166 11 c 0
 161 11 157 11 152 11 c 0
 76 19 l 0
EndSplineSet
Validated: 1
EndChar

StartChar: four
Encoding: 52 52 59
Width: 492
VWidth: 0
Flags: HW
LayerCount: 2
Fore
SplineSet
175 16 m 0
 175 20 174 24 174 28 c 0
 174 66 193 102 196 139 c 0
 199 168 218 192 222 221 c 0
 226 231 230 249 230 264 c 0
 230 279 225 291 212 291 c 0
 210 291 207 291 204 290 c 1
 120 317 95 309 50 338 c 0
 22 364 10 391 10 423 c 0
 10 435 12 447 15 460 c 0
 32 536 57 610 86 683 c 0
 95 703 109 738 133 738 c 0
 138 738 143 737 148 734 c 0
 176 717 193 704 193 684 c 0
 193 674 189 663 181 649 c 1
 156 635 144 609 110 449 c 0
 106 440 104 433 104 428 c 0
 104 412 123 409 159 394 c 0
 166 389 175 387 183 387 c 0
 207 387 235 403 257 409 c 0
 286 427 297 471 297 494 c 0
 317 538 311 588 331 632 c 0
 337 642 347 646 357 646 c 0
 375 646 394 633 397 615 c 0
 399 603 400 590 400 578 c 0
 400 535 389 493 381 452 c 0
 380 439 369 416 369 401 c 0
 369 393 372 387 382 387 c 0
 384 387 388 387 391 388 c 0
 397 389 404 390 410 390 c 0
 434 390 458 380 473 362 c 1
 473 361 l 0
 473 332 444 304 415 296 c 0
 386 289 352 291 330 269 c 0
 304 217 293 159 281 102 c 0
 276 68 271 26 236 9 c 0
 227 5 215 1 204 1 c 0
 192 1 181 5 175 16 c 0
EndSplineSet
Validated: 1
EndChar

StartChar: five
Encoding: 53 53 60
Width: 557
VWidth: 0
Flags: HW
LayerCount: 2
Fore
SplineSet
65 29 m 0
 27 50 12 93 12 135 c 0
 12 152 14 169 19 185 c 0
 22 205 34 230 49 230 c 0
 56 230 62 226 70 215 c 0
 92 192 79 158 95 133 c 0
 105 125 117 122 129 122 c 0
 148 122 167 129 184 133 c 0
 201 140 209 156 209 173 c 0
 209 187 204 203 195 213 c 0
 164 254 119 284 96 331 c 0
 78 365 65 403 65 442 c 0
 65 450 66 459 67 467 c 0
 89 528 130 581 173 628 c 0
 200 657 239 684 280 684 c 0
 286 684 293 683 299 682 c 0
 303 682 308 682 312 682 c 0
 371 682 428 705 487 705 c 0
 490 705 494 705 497 705 c 1
 523 687 528 649 541 621 c 0
 542 619 542 617 542 615 c 0
 542 609 536 607 527 607 c 0
 515 607 497 610 480 611 c 0
 399 589 333 578 251 564 c 0
 219 558 209 539 181 525 c 0
 169 509 154 473 154 441 c 0
 154 429 156 417 162 407 c 0
 180 356 212 312 248 272 c 0
 268 248 277 218 277 188 c 0
 277 168 273 148 264 129 c 0
 242 73 195 16 130 13 c 0
 129 13 127 13 126 13 c 0
 105 13 84 20 65 29 c 0
EndSplineSet
Validated: 1
EndChar

StartChar: six
Encoding: 54 54 61
Width: 529
VWidth: 0
Flags: HW
LayerCount: 2
Fore
SplineSet
173 12 m 0
 112 45 60 95 20 152 c 0
 5 173 1 198 1 223 c 0
 1 250 6 277 10 302 c 0
 37 424 87 540 159 642 c 0
 185 679 220 709 240 749 c 0
 252 776 288 785 317 785 c 0
 320 785 323 785 326 785 c 0
 347 783 354 771 354 756 c 0
 354 736 340 711 325 699 c 0
 279 666 251 616 219 570 c 0
 161 481 114 382 100 276 c 0
 99 270 99 263 99 256 c 0
 99 232 103 203 117 196 c 1
 117 197 117 199 117 200 c 0
 117 232 128 264 150 289 c 0
 188 332 229 376 282 399 c 0
 297 404 312 407 328 407 c 0
 369 407 411 390 444 367 c 0
 489 334 516 277 516 221 c 0
 516 208 515 195 512 183 c 0
 499 140 469 105 455 62 c 0
 428 25 379 15 337 5 c 0
 310 1 283 -3 256 -3 c 0
 228 -3 199 1 173 12 c 0
411 109 m 0
 440 151 441 171 451 221 c 0
 451 223 451 225 451 228 c 0
 451 253 440 298 431 318 c 0
 408 330 381 335 354 335 c 0
 310 335 265 321 238 296 c 0
 213 277 191 260 191 229 c 0
 191 228 191 226 191 225 c 0
 184 190 184 208 164 138 c 0
 164 94 232 47 282 47 c 0
 291 47 300 49 307 52 c 0
 335 65 393 84 411 109 c 0
EndSplineSet
Validated: 1
EndChar

StartChar: seven
Encoding: 55 55 62
Width: 560
VWidth: 0
Flags: HW
LayerCount: 2
Fore
SplineSet
158 38 m 0
 188 141 260 236 313 325 c 1
 313 353 l 1
 284 358 255 363 226 363 c 0
 206 363 187 361 168 355 c 0
 162 353 157 352 151 352 c 0
 125 352 98 368 98 395 c 0
 98 397 99 400 99 402 c 0
 102 434 125 466 160 466 c 0
 161 466 161 466 162 466 c 0
 235 471 308 480 380 488 c 1
 402 543 430 597 442 656 c 1
 435 685 379 693 348 693 c 0
 342 693 338 692 334 692 c 0
 256 670 186 645 105 638 c 0
 83 637 65 631 49 631 c 0
 35 631 23 636 13 653 c 0
 12 656 12 659 12 662 c 0
 12 694 59 703 82 717 c 0
 187 760 297 806 412 806 c 0
 461 806 516 788 541 742 c 0
 542 735 543 727 543 720 c 0
 543 688 531 656 526 623 c 0
 517 583 507 542 492 504 c 1
 503 481 535 467 535 441 c 0
 535 436 534 430 531 424 c 1
 530 389 501 373 471 373 c 0
 466 373 462 373 457 374 c 0
 456 374 454 374 453 374 c 0
 417 374 410 334 400 306 c 0
 377 243 342 182 318 119 c 0
 296 80 257 52 243 10 c 1
 232 4 217 0 202 -0 c 0
 183 0 165 7 160 28 c 0
 159 31 158 35 158 38 c 0
EndSplineSet
Validated: 1
EndChar

StartChar: eight
Encoding: 56 56 63
Width: 517
VWidth: 0
Flags: HW
LayerCount: 2
Fore
SplineSet
111 -6 m 0
 52 7 14 63 8 120 c 0
 5 135 4 151 4 166 c 0
 4 214 17 262 43 303 c 0
 63 342 92 375 110 415 c 0
 112 421 112 428 112 434 c 0
 112 467 94 500 93 534 c 0
 92 543 91 553 91 562 c 0
 91 634 128 703 184 749 c 0
 244 800 322 843 403 843 c 0
 412 843 421 842 430 841 c 0
 458 836 493 826 506 798 c 0
 507 791 508 783 508 776 c 0
 508 724 481 674 459 627 c 0
 435 582 410 570 400 520 c 0
 383 483 338 435 301 427 c 0
 272 414 231 402 229 364 c 0
 230 317 262 277 262 230 c 0
 263 213 264 195 264 178 c 0
 264 129 258 79 241 32 c 0
 226 7 198 -20 168 -20 c 0
 161 -20 153 -18 146 -15 c 0
 134 -12 123 -9 111 -6 c 0
285 525 m 1
 325 582 340 616 351 668 c 0
 357 698 360 720 360 737 c 0
 360 764 352 776 336 776 c 0
 335 776 l 0
 288 775 206 637 195 541 c 0
 193 525 192 511 192 499 c 0
 192 468 199 453 211 453 c 0
 226 453 251 477 285 525 c 1
 285 525 l 1
193 199 m 0
 188 309 176 359 155 359 c 0
 147 359 138 352 127 339 c 0
 86 290 66 242 66 193 c 0
 66 180 67 167 70 154 c 0
 87 74 104 54 157 54 c 0
 187 54 196 58 196 116 c 0
 196 136 195 163 193 199 c 0
EndSplineSet
Validated: 1
EndChar

StartChar: nine
Encoding: 57 57 64
Width: 474
VWidth: 0
Flags: HW
LayerCount: 2
Fore
SplineSet
22 106 m 1
 22 139 6 167 1 197 c 1
 12 232 49 249 84 249 c 0
 92 249 99 249 106 247 c 0
 117 241 121 231 121 221 c 0
 121 202 108 180 108 162 c 0
 108 161 l 0
 117 129 149 110 176 95 c 0
 185 91 194 89 203 89 c 0
 232 89 259 110 274 136 c 0
 325 199 330 274 349 343 c 0
 358 383 372 423 375 464 c 1
 371 472 367 475 363 475 c 0
 349 475 338 436 326 428 c 0
 302 411 274 404 246 404 c 0
 219 404 192 410 167 419 c 0
 121 436 80 482 80 533 c 0
 80 538 80 543 81 548 c 0
 87 628 145 692 201 744 c 0
 241 777 285 812 339 814 c 0
 401 814 459 759 459 697 c 0
 459 696 459 696 459 695 c 0
 459 686 459 676 459 667 c 0
 459 574 451 482 436 390 c 0
 409 280 384 162 324 74 c 0
 295 34 251 -1 200 -1 c 0
 196 -1 191 -1 186 0 c 0
 119 5 46 55 22 106 c 1
298 535 m 1
 321 561 353 610 368 645 c 0
 379 671 385 692 385 708 c 0
 385 739 365 753 324 753 c 0
 279 753 198 670 162 586 c 0
 153 565 148 552 148 542 c 0
 148 531 153 524 163 513 c 0
 177 497 194 489 213 489 c 0
 240 489 271 505 298 535 c 1
 298 535 l 1
EndSplineSet
Validated: 1
EndChar

StartChar: colon
Encoding: 58 58 65
Width: 320
VWidth: 0
Flags: HW
LayerCount: 2
Fore
SplineSet
121 121 m 2
 114 129 111 137 111 146 c 0
 111 149 111 153 112 156 c 0
 118 186 128 195 153 195 c 0
 172 195 178 191 183 174 c 0
 187 162 189 155 189 149 c 0
 189 141 185 136 176 123 c 0
 167 112 158 105 148 105 c 0
 139 105 130 110 121 121 c 1
 121 121 l 2
125 401 m 2
 118 409 115 417 115 426 c 0
 115 429 115 432 116 435 c 0
 122 465 132 475 157 475 c 0
 176 475 182 471 187 454 c 0
 191 442 193 435 193 429 c 0
 193 421 189 416 180 403 c 0
 171 392 162 385 152 385 c 0
 143 385 134 390 125 401 c 1
 125 401 l 2
EndSplineSet
Validated: 1
EndChar

StartChar: semicolon
Encoding: 59 59 66
Width: 286
VWidth: 0
Flags: HW
LayerCount: 2
Fore
SplineSet
34 -154 m 0
 28 -141 25 -129 25 -118 c 0
 25 -97 35 -78 55 -52 c 0
 71 -30 95 20 108 61 c 0
 128 122 142 148 158 148 c 0
 163 148 169 145 175 140 c 0
 183 133 187 121 187 103 c 0
 187 68 171 11 139 -68 c 0
 102 -161 96 -169 71 -172 c 0
 68 -172 65 -172 62 -172 c 0
 48 -172 40 -168 34 -154 c 0
140 351 m 2
 131 360 127 371 127 382 c 0
 127 385 127 388 128 391 c 0
 136 426 148 437 179 437 c 0
 203 437 210 433 217 413 c 0
 222 399 224 390 224 383 c 0
 224 373 219 367 208 353 c 0
 197 340 185 333 173 333 c 0
 162 333 151 339 140 351 c 1
 140 351 l 2
EndSplineSet
Validated: 1
EndChar

StartChar: less
Encoding: 60 60 67
Width: 483
VWidth: 0
Flags: HW
LayerCount: 2
Fore
SplineSet
391 23 m 0
 390 18 389 13 385 9 c 0
 377 4 366 1 356 1 c 0
 339 1 323 8 313 20 c 0
 266 73 229 132 184 186 c 0
 155 227 106 249 70 283 c 0
 46 303 49 334 41 361 c 0
 38 368 36 376 36 384 c 0
 36 399 43 414 56 425 c 0
 97 462 147 488 194 516 c 0
 236 539 277 566 326 574 c 0
 329 575 331 575 333 575 c 0
 354 575 370 557 370 537 c 0
 370 533 370 529 370 525 c 0
 370 508 368 490 355 477 c 1
 298 464 253 425 193 415 c 1
 177 402 151 378 151 353 c 0
 151 352 151 350 151 349 c 0
 160 326 180 309 194 289 c 0
 248 221 295 148 365 93 c 0
 382 80 393 59 393 39 c 0
 393 34 393 28 391 23 c 0
EndSplineSet
Validated: 1
EndChar

StartChar: greater
Encoding: 62 62 68
Width: 431
VWidth: 0
Flags: HW
LayerCount: 2
Fore
SplineSet
85 47 m 0
 83 52 83 58 83 63 c 0
 83 81 91 99 106 111 c 0
 166 161 207 229 253 291 c 0
 265 309 282 323 289 345 c 0
 289 346 289 348 289 349 c 0
 289 372 267 394 254 406 c 0
 203 415 164 450 115 462 c 1
 105 473 103 490 103 505 c 0
 103 509 103 513 103 517 c 0
 103 534 117 552 135 552 c 0
 137 552 138 551 140 551 c 0
 181 544 217 520 253 498 c 0
 293 472 335 449 370 415 c 0
 381 405 387 391 387 377 c 0
 387 370 386 364 383 357 c 0
 376 333 380 303 358 285 c 0
 327 254 286 234 261 197 c 0
 223 148 191 94 151 46 c 0
 142 35 128 28 114 28 c 0
 106 28 97 31 90 35 c 0
 87 38 86 43 85 47 c 0
EndSplineSet
Validated: 1
EndChar

StartChar: question
Encoding: 63 63 69
Width: 421
VWidth: 0
Flags: HW
LayerCount: 2
Fore
SplineSet
68 239 m 0
 47 246 40 266 40 285 c 0
 40 289 40 293 41 297 c 0
 63 364 107 406 146 449 c 0
 181 500 228 544 250 604 c 0
 255 630 261 657 264 683 c 0
 264 684 264 685 264 685 c 0
 264 708 244 719 223 719 c 0
 217 719 211 718 205 716 c 0
 172 707 148 681 129 654 c 0
 123 641 107 631 95 631 c 0
 86 631 78 637 77 652 c 0
 76 660 75 668 75 676 c 0
 75 698 80 720 97 734 c 0
 120 756 143 780 173 790 c 0
 180 791 187 792 195 792 c 0
 218 792 242 786 263 775 c 0
 294 757 304 723 304 690 c 0
 304 682 304 675 303 668 c 0
 290 563 241 465 181 379 c 0
 175 366 158 348 158 333 c 0
 158 328 160 323 165 319 c 1
 168 319 170 319 173 319 c 0
 200 319 225 332 251 339 c 0
 284 349 317 365 352 365 c 0
 374 361 385 338 391 319 c 0
 392 314 392 310 392 306 c 0
 392 289 384 278 369 271 c 0
 368 271 367 271 366 271 c 0
 323 271 262 234 232 234 c 0
 231 234 l 0
 204 231 176 228 148 228 c 0
 125 228 103 230 80 234 c 0
 76 235 72 237 68 239 c 0
161 16 m 0
 152 17 142 18 137 27 c 0
 132 36 130 48 127 58 c 0
 127 67 133 75 137 83 c 0
 147 100 159 115 174 129 c 0
 181 134 190 132 197 135 c 0
 208 139 219 136 228 130 c 0
 237 124 244 114 244 102 c 0
 244 102 244 101 244 100 c 0
 244 82 232 66 219 55 c 0
 211 48 202 40 198 29 c 0
 199 22 193 15 186 15 c 0
 178 14 169 15 161 16 c 0
EndSplineSet
Validated: 1
EndChar

StartChar: slash
Encoding: 47 47 70
Width: 440
VWidth: 0
Flags: HW
LayerCount: 2
Fore
SplineSet
74 14 m 0
 57 24 35 38 35 60 c 0
 35 64 35 68 37 73 c 0
 54 125 92 167 114 217 c 0
 136 279 170 339 190 395 c 0
 249 534 295 679 372 810 c 0
 375 815 377 817 380 817 c 0
 388 817 395 800 407 800 c 0
 409 800 410 800 412 801 c 1
 412 798 413 795 413 792 c 0
 413 766 394 741 386 716 c 0
 329 584 282 448 223 316 c 0
 201 268 182 219 165 169 c 0
 143 122 125 74 103 27 c 0
 98 19 82 -3 74 14 c 0
EndSplineSet
Validated: 1
EndChar

StartChar: braceleft
Encoding: 123 123 71
Width: 448
VWidth: 0
Flags: HW
LayerCount: 2
Fore
SplineSet
152 25 m 0
 83 71 29 206 28 233 c 0
 38 283 74 311 111 351 c 0
 137 381 165 410 189 442 c 1
 157 446 139 499 170 516 c 0
 173 518 177 519 181 519 c 0
 194 519 210 511 221 511 c 0
 228 511 232 514 234 523 c 0
 237 542 240 562 240 581 c 0
 240 600 237 618 229 635 c 0
 224 650 222 665 222 680 c 0
 222 730 246 779 290 804 c 0
 311 818 338 829 364 829 c 0
 381 829 397 824 411 812 c 0
 417 806 419 797 419 789 c 0
 419 772 408 755 394 755 c 0
 389 755 383 757 377 763 c 1
 374 763 371 764 368 764 c 0
 332 764 295 730 293 690 c 0
 292 679 291 669 291 660 c 0
 291 641 294 624 303 604 c 0
 306 592 307 581 307 569 c 0
 307 518 283 467 263 425 c 0
 214 357 151 308 105 237 c 0
 103 231 103 225 103 219 c 0
 103 188 121 159 134 131 c 0
 151 103 172 67 206 67 c 0
 209 67 212 67 216 68 c 0
 262 73 302 102 337 131 c 1
 341 132 344 133 347 133 c 0
 362 133 369 120 369 105 c 0
 369 89 361 70 345 65 c 0
 314 42 286 13 246 7 c 0
 237 5 229 4 220 4 c 0
 196 4 172 11 152 25 c 0
EndSplineSet
Validated: 33
EndChar

StartChar: braceright
Encoding: 125 125 72
Width: 429
VWidth: 0
Flags: HW
HStem: 20 67<25.9508 201.155> 431 67<178.803 228.134> 768 56<165.489 250.723>
VStem: 130 51<346.667 430.276> 226 48<113.296 254.365>
LayerCount: 2
Fore
SplineSet
112 17 m 0
 84 27 23 47 44 83 c 1
 55 88 66 90 78 90 c 0
 105 90 134 80 160 76 c 0
 172 71 185 68 198 68 c 0
 223 68 248 78 262 101 c 0
 286 134 285 174 286 213 c 0
 276 253 227 279 208 315 c 0
 193 342 180 368 180 397 c 0
 180 407 181 418 185 430 c 0
 187 436 188 441 188 446 c 0
 188 474 158 494 158 521 c 0
 158 524 158 528 159 531 c 0
 178 578 219 608 258 641 c 0
 280 665 329 688 329 721 c 0
 329 725 329 730 327 734 c 0
 302 764 265 764 228 770 c 1
 217 777 213 785 213 793 c 0
 213 810 234 825 255 825 c 0
 261 825 267 824 273 821 c 0
 323 813 372 785 393 741 c 0
 395 734 395 728 395 722 c 0
 395 681 364 644 334 616 c 0
 305 586 271 560 237 535 c 1
 234 529 232 524 232 520 c 0
 232 495 290 502 305 484 c 0
 315 476 319 467 319 458 c 0
 319 442 305 427 285 427 c 0
 281 427 277 428 273 429 c 0
 270 429 268 430 266 430 c 0
 247 430 240 418 240 404 c 0
 240 390 247 374 254 364 c 0
 274 334 294 304 317 275 c 0
 338 248 351 215 351 182 c 0
 351 174 351 167 349 159 c 0
 344 98 314 30 247 10 c 0
 230 5 213 3 195 3 c 0
 167 3 138 8 112 17 c 0
EndSplineSet
Validated: 33
EndChar

StartChar: asciitilde
Encoding: 126 126 73
Width: 729
VWidth: 0
Flags: HW
LayerCount: 2
Fore
SplineSet
352 262 m 0
 322 275 293 292 271 317 c 0
 239 348 243 412 221 436 c 0
 199 443 184 418 170 404 c 0
 143 373 125 332 91 307 c 0
 88 305 85 305 82 305 c 0
 68 305 59 321 59 336 c 0
 59 343 61 350 65 355 c 0
 92 414 124 463 168 501 c 0
 179 509 196 522 211 522 c 0
 216 522 221 520 225 517 c 1
 228 493 264 498 269 473 c 0
 291 432 301 382 340 352 c 0
 358 339 378 334 399 334 c 0
 422 334 445 340 467 347 c 0
 517 353 568 411 603 411 c 0
 604 411 l 0
 605 411 605 411 606 411 c 0
 620 411 626 403 626 393 c 0
 626 382 619 369 609 362 c 0
 571 336 540 296 502 282 c 0
 470 267 431 256 395 256 c 0
 380 256 365 258 352 262 c 0
EndSplineSet
Validated: 33
EndChar

StartChar: bracketleft
Encoding: 91 91 74
Width: 409
VWidth: 0
Flags: HW
LayerCount: 2
Fore
SplineSet
65 40 m 0
 60 50 59 60 59 71 c 0
 59 90 64 109 65 127 c 0
 78 200 84 273 85 347 c 0
 89 452 92 557 103 662 c 0
 105 695 128 724 156 740 c 1
 186 737 216 735 246 734 c 0
 283 731 322 735 358 723 c 0
 371 715 379 700 379 686 c 0
 379 675 374 664 364 657 c 0
 355 644 343 641 329 641 c 0
 315 641 300 644 287 644 c 0
 286 644 285 644 284 644 c 0
 283 644 281 644 280 644 c 0
 240 644 204 630 166 620 c 0
 143 603 148 570 144 545 c 0
 133 398 126 250 122 102 c 1
 144 104 166 110 188 110 c 0
 200 109 l 0
 209 103 213 93 213 83 c 0
 213 65 201 46 183 42 c 0
 161 33 137 26 113 26 c 0
 99 26 86 29 73 34 c 0
 70 36 67 37 65 40 c 0
EndSplineSet
Validated: 1
EndChar

StartChar: bracketright
Encoding: 93 93 75
Width: 360
VWidth: 0
Flags: HW
LayerCount: 2
Fore
SplineSet
55 12 m 0
 48 26 44 42 44 58 c 0
 44 71 46 84 51 95 c 0
 69 119 103 113 129 116 c 0
 151 119 190 113 190 142 c 0
 190 144 190 147 189 150 c 0
 195 237 199 325 209 412 c 0
 213 466 226 520 229 574 c 0
 230 577 230 581 230 584 c 0
 230 607 205 617 183 617 c 0
 182 617 181 617 180 617 c 0
 174 618 169 618 163 618 c 0
 87 613 l 0
 72 617 76 639 57 639 c 1
 52 645 49 653 49 662 c 0
 49 682 62 703 83 703 c 0
 84 703 84 703 85 703 c 0
 86 703 88 703 89 703 c 0
 136 703 178 675 225 675 c 0
 228 675 231 675 234 675 c 0
 240 678 247 679 253 679 c 0
 269 679 284 670 291 654 c 0
 295 646 305 640 300 631 c 0
 275 525 254 419 247 310 c 0
 246 282 246 254 246 226 c 0
 246 179 247 131 253 85 c 0
 255 78 256 71 256 63 c 0
 256 41 248 19 231 8 c 0
 193 3 156 -1 118 -1 c 0
 81 0 l 0
 72 1 61 4 55 12 c 0
EndSplineSet
Validated: 1
EndChar

StartChar: asterisk
Encoding: 42 42 76
Width: 446
VWidth: 0
Flags: HW
LayerCount: 2
Fore
SplineSet
179 191 m 0
 166 204 168 223 165 239 c 0
 160 244 154 245 148 245 c 0
 138 245 126 242 116 242 c 0
 114 242 112 242 110 242 c 0
 91 242 71 243 54 252 c 0
 51 256 50 261 50 265 c 0
 50 278 59 291 66 301 c 0
 77 314 140 353 158 354 c 1
 150 379 122 396 99 421 c 0
 83 438 61 451 52 473 c 0
 52 475 52 477 52 479 c 0
 52 500 69 519 90 519 c 0
 92 519 93 519 95 519 c 0
 126 515 149 488 161 461 c 0
 164 450 173 445 181 445 c 0
 190 445 198 451 201 462 c 0
 213 485 212 513 225 536 c 0
 232 543 242 546 252 546 c 0
 260 546 268 545 275 541 c 0
 289 533 294 520 294 505 c 0
 294 497 293 488 290 480 c 0
 281 461 301 457 312 469 c 0
 332 485 353 502 380 503 c 0
 381 503 383 503 384 503 c 0
 398 503 417 498 419 483 c 0
 411 463 393 451 378 437 c 0
 347 410 287 392 256 365 c 1
 274 341 323 310 335 282 c 0
 337 278 337 273 337 268 c 0
 337 254 331 238 317 238 c 0
 316 238 l 0
 297 241 279 254 259 254 c 0
 245 246 246 227 237 214 c 0
 230 200 217 182 200 182 c 0
 198 182 197 182 195 182 c 0
 189 183 184 187 179 191 c 0
EndSplineSet
Validated: 1
EndChar

StartChar: parenleft
Encoding: 40 40 77
Width: 335
VWidth: 0
Flags: HW
LayerCount: 2
Fore
SplineSet
212 32 m 1
 184 46 159 63 156 69 c 0
 153 75 136 88 118 98 c 0
 74 123 56 158 42 242 c 0
 38 270 35 291 35 311 c 0
 35 331 38 351 42 375 c 0
 72 539 157 706 208 706 c 0
 209 706 210 706 211 706 c 0
 225 704 232 693 232 677 c 0
 232 656 221 627 199 597 c 0
 140 517 104 402 104 315 c 0
 104 289 107 266 114 246 c 0
 127 208 198 124 217 124 c 0
 237 124 295 55 295 31 c 0
 295 15 290 7 278 7 c 0
 265 7 245 15 212 32 c 1
 212 32 l 1
EndSplineSet
Validated: 1
EndChar

StartChar: parenright
Encoding: 41 41 78
Width: 418
VWidth: 0
Flags: HW
LayerCount: 2
Fore
SplineSet
43 30 m 0
 19 39 17 63 17 86 c 0
 17 92 17 98 17 103 c 0
 18 112 15 127 19 134 c 0
 20 134 20 134 21 134 c 0
 44 134 57 124 80 124 c 0
 93 124 110 128 133 138 c 1
 255 226 325 361 328 508 c 0
 316 567 323 635 281 684 c 0
 260 708 234 736 234 770 c 0
 234 772 234 775 234 777 c 0
 240 789 250 794 261 794 c 0
 279 794 300 781 311 767 c 0
 360 710 370 633 383 562 c 0
 384 547 384 531 384 515 c 0
 384 381 350 234 276 140 c 0
 236 90 188 38 123 24 c 0
 112 20 101 18 90 18 c 0
 74 18 58 22 43 30 c 0
EndSplineSet
Validated: 1
EndChar

StartChar: odieresis
Encoding: 246 246 79
Width: 432
VWidth: 0
Flags: HW
LayerCount: 2
Fore
SplineSet
111 13 m 1
 36 60 19 156 22 216 c 0
 28 317 47 374 105 449 c 0
 158 517 217 555 268 555 c 0
 277 555 286 553 294 551 c 0
 333 540 342 528 353 480 c 0
 360 449 370 418 375 412 c 0
 381 405 384 397 384 385 c 0
 384 361 371 322 340 245 c 0
 293 128 199 -1 160 -1 c 0
 159 -1 l 0
 147 0 126 6 111 13 c 1
 111 13 l 1
223 151 m 0
 252 192 278 236 295 284 c 0
 302 306 310 340 310 370 c 0
 310 382 308 394 305 403 c 0
 293 438 276 449 263 484 c 0
 262 484 l 0
 249 484 237 470 226 463 c 0
 180 433 145 395 120 352 c 0
 93 310 82 275 82 228 c 0
 82 221 82 213 83 205 c 0
 86 175 111 97 134 77 c 0
 138 74 142 73 147 73 c 0
 177 73 208 132 223 151 c 0
354 638 m 1
 346 641 342 652 342 667 c 0
 342 696 357 739 378 760 c 0
 387 769 395 771 406 764 c 0
 414 759 418 754 418 743 c 0
 418 732 414 715 408 687 c 0
 399 647 392 633 376 633 c 0
 370 633 363 635 354 638 c 1
 354 638 l 1
224 659 m 0
 221 669 222 680 229 688 c 0
 236 700 237 714 237 728 c 0
 239 747 246 767 262 779 c 0
 269 785 281 787 289 781 c 0
 299 773 300 758 301 746 c 0
 301 743 301 740 301 737 c 0
 301 720 299 704 293 688 c 0
 291 682 287 676 282 672 c 0
 272 659 283 662 270 653 c 0
 261 648 251 643 240 642 c 0
 232 643 227 652 224 659 c 0
EndSplineSet
Validated: 33
EndChar

StartChar: adieresis
Encoding: 228 228 80
Width: 454
VWidth: 0
Flags: HW
LayerCount: 2
Fore
SplineSet
356 -102 m 0
 331 -64 319 -18 318 28 c 0
 321 53 312 79 297 98 c 1
 275 96 262 70 238 55 c 0
 193 28 143 8 90 8 c 0
 84 8 78 9 72 9 c 0
 47 10 24 29 18 54 c 0
 13 74 10 94 10 114 c 0
 10 161 24 207 46 248 c 0
 59 273 73 294 82 311 c 0
 107 351 144 385 185 409 c 0
 208 420 234 428 259 428 c 0
 277 428 296 424 312 414 c 0
 343 390 353 351 368 317 c 0
 384 298 383 276 384 253 c 0
 384 242 384 232 384 221 c 0
 384 189 383 157 383 125 c 0
 383 75 386 26 400 -22 c 0
 406 -48 426 -66 440 -88 c 0
 444 -94 446 -98 446 -103 c 0
 446 -121 419 -131 402 -131 c 0
 401 -131 401 -131 400 -131 c 0
 381 -131 367 -116 356 -102 c 0
148 85 m 1
 203 115 249 159 293 203 c 0
 305 213 315 228 315 243 c 0
 315 251 312 259 305 267 c 0
 303 271 302 275 302 279 c 0
 302 295 319 307 319 324 c 0
 319 326 319 328 318 330 c 0
 316 357 291 378 265 378 c 0
 260 378 256 377 251 376 c 0
 199 363 162 319 134 275 c 0
 105 225 81 170 77 112 c 0
 76 110 76 108 76 105 c 0
 76 87 89 64 106 64 c 0
 110 64 114 65 118 68 c 0
 129 72 137 80 148 85 c 2
 148 85 l 1
190 489 m 0
 187 498 188 509 195 517 c 0
 202 529 203 543 203 556 c 0
 205 574 212 593 227 605 c 0
 234 611 245 613 252 607 c 0
 262 599 263 586 264 574 c 0
 264 571 264 568 264 565 c 0
 264 549 262 532 256 517 c 0
 254 511 250 506 245 502 c 0
 236 490 247 492 234 483 c 0
 225 479 216 474 206 473 c 0
 198 474 192 482 190 489 c 0
321 470 m 1
 313 473 309 485 309 500 c 0
 309 530 323 573 344 593 c 0
 353 602 361 603 372 596 c 0
 380 591 384 586 384 574 c 0
 384 563 381 547 375 520 c 0
 366 480 359 465 342 465 c 0
 336 465 330 467 321 470 c 1
 321 470 l 1
EndSplineSet
Validated: 33
EndChar

StartChar: germandbls
Encoding: 223 223 81
Width: 598
VWidth: 0
Flags: HW
LayerCount: 2
Fore
SplineSet
31 -289 m 0
 18 -228 27 -165 33 -103 c 0
 47 -11 58 83 82 174 c 0
 96 238 151 390 180 450 c 0
 265 598 340 635 446 635 c 0
 447 635 449 635 450 635 c 1
 506 620 541 579 557 489 c 0
 556 421 553 378 521 300 c 1
 565 220 565 222 566 160 c 0
 566 124 555 88 527 63 c 0
 494 29 443 9 391 9 c 0
 363 9 334 15 309 28 c 0
 295 39 283 56 283 70 c 0
 283 81 290 90 308 93 c 0
 309 93 310 93 311 93 c 0
 345 93 380 82 414 82 c 0
 426 82 438 83 450 87 c 0
 481 99 501 131 501 163 c 0
 501 173 499 183 495 192 c 0
 472 255 452 249 415 269 c 0
 396 279 385 294 385 308 c 0
 385 322 396 334 419 334 c 0
 420 334 421 334 422 334 c 0
 470 331 434 332 470 331 c 1
 472 353 483 420 483 475 c 0
 483 509 478 539 465 549 c 0
 444 563 425 570 406 570 c 0
 390 570 373 565 354 553 c 0
 220 416 175 240 131 83 c 0
 119 25 101 -35 97 -94 c 1
 129 29 156 104 209 214 c 1
 234 244 l 1
 252 221 250 219 253 194 c 0
 219 56 165 -120 108 -252 c 0
 103 -268 75 -304 52 -304 c 0
 44 -304 36 -300 31 -289 c 0
EndSplineSet
Validated: 33
EndChar

StartChar: udieresis
Encoding: 252 252 82
Width: 475
VWidth: 0
Flags: HW
LayerCount: 2
Fore
SplineSet
408 18 m 0
 384 57 371 102 357 145 c 2
 333 221 l 1
 294 158 259 86 194 45 c 0
 161 25 118 12 81 28 c 0
 54 47 44 82 30 111 c 0
 12 152 3 196 3 240 c 0
 3 273 8 306 16 338 c 0
 33 406 57 474 87 537 c 0
 98 556 113 610 122 610 c 0
 124 610 126 606 127 598 c 0
 129 588 129 582 129 576 c 0
 129 571 129 567 129 564 c 0
 129 557 130 551 138 541 c 0
 140 535 140 528 140 522 c 0
 140 497 129 473 122 449 c 0
 103 402 86 351 86 299 c 0
 86 291 86 282 87 274 c 0
 91 233 95 190 117 154 c 0
 123 148 130 145 138 145 c 0
 162 145 190 166 190 166 c 0
 266 242 283 300 311 376 c 0
 328 416 330 466 362 498 c 0
 366 501 370 502 374 502 c 0
 393 502 403 469 406 452 c 0
 417 396 412 338 421 281 c 0
 427 211 452 144 456 73 c 0
 454 50 444 19 419 13 c 0
 415 13 411 15 408 18 c 0
139 692 m 0
 136 700 137 710 143 717 c 0
 149 727 151 739 151 751 c 0
 152 767 160 784 174 794 c 0
 181 799 191 801 198 796 c 0
 207 789 208 777 209 767 c 0
 209 764 209 762 209 759 c 0
 209 745 207 730 202 717 c 0
 200 712 196 708 191 705 c 0
 182 694 192 695 180 687 c 0
 171 683 163 680 153 679 c 0
 145 679 141 686 139 692 c 0
397 680 m 1
 390 683 386 692 386 705 c 0
 386 730 399 767 417 785 c 0
 425 793 432 794 441 788 c 0
 448 784 451 780 451 770 c 0
 451 761 448 746 443 723 c 0
 436 689 429 676 415 676 c 0
 410 676 404 677 397 680 c 1
 397 680 l 1
EndSplineSet
Validated: 33
EndChar

StartChar: exclam
Encoding: 33 33 84
Width: 300
VWidth: 0
Flags: HW
LayerCount: 2
Fore
SplineSet
131 287 m 0
 117 299 108 345 108 380 c 0
 108 396 110 409 114 416 c 0
 122 429 133 481 140 538 c 0
 142 556 150 603 156 643 c 0
 160 671 162 698 162 714 c 0
 162 721 162 727 161 729 c 0
 159 732 159 736 159 740 c 0
 159 762 179 792 197 792 c 0
 219 792 230 772 230 721 c 0
 230 694 227 659 221 613 c 0
 213 547 203 451 200 398 c 0
 195 309 185 269 163 269 c 0
 154 269 144 275 131 287 c 0
124 8 m 1
 97 21 84 49 84 76 c 0
 84 104 98 131 126 140 c 0
 132 142 137 143 142 143 c 0
 153 143 161 138 168 126 c 0
 178 110 182 92 182 74 c 0
 182 38 164 4 139 4 c 0
 134 4 129 6 124 8 c 1
 124 8 l 1
EndSplineSet
Validated: 1
EndChar

StartChar: quotedbl
Encoding: 34 34 85
Width: 475
VWidth: 0
Flags: HW
LayerCount: 2
Fore
SplineSet
150 633 m 1
 139 637 134 653 134 674 c 0
 134 716 154 779 183 809 c 0
 190 816 196 820 203 820 c 0
 208 820 214 818 220 814 c 0
 232 807 237 800 237 783 c 0
 237 768 233 744 224 705 c 0
 211 648 202 626 179 626 c 0
 171 626 162 628 150 633 c 1
 150 633 l 1
256 636 m 2
 255 638 255 640 255 643 c 0
 255 655 261 675 270 694 c 0
 282 718 293 750 293 764 c 0
 293 790 317 810 344 810 c 0
 348 810 353 809 357 808 c 0
 370 805 375 799 375 778 c 0
 375 766 373 749 370 724 c 0
 364 681 354 641 346 634 c 0
 336 626 318 623 300 623 c 0
 280 623 261 627 256 636 c 2
 256 636 l 2
EndSplineSet
Validated: 1
EndChar

StartChar: exclamdown
Encoding: 161 161 86
Width: 453
VWidth: 0
Flags: HW
LayerCount: 2
Fore
SplineSet
109 -176 m 2
 97 -159 91 -137 94 -123 c 0
 104 -77 130 113 143 237 c 0
 161 405 166 426 182 426 c 0
 189 426 197 439 200 454 c 0
 203 472 211 481 221 481 c 0
 230 481 240 474 250 461 c 0
 257 452 260 443 260 430 c 0
 260 420 258 407 254 388 c 0
 244 336 233 273 203 83 c 0
 194 29 187 -45 187 -80 c 0
 187 -142 177 -167 141 -196 c 0
 140 -197 138 -197 136 -197 c 0
 128 -197 118 -189 109 -176 c 2
 109 -176 l 2
217 617 m 0
 207 625 201 644 201 670 c 0
 201 705 203 711 226 718 c 0
 234 720 241 722 248 722 c 0
 258 722 267 719 278 713 c 0
 293 706 298 700 298 687 c 0
 298 681 297 673 295 662 c 0
 289 626 271 605 248 605 c 0
 238 605 228 609 217 617 c 0
EndSplineSet
Validated: 33
EndChar

StartChar: at
Encoding: 64 64 87
Width: 662
VWidth: 0
Flags: HW
LayerCount: 2
Fore
SplineSet
251 -118 m 0
 119 -70 37 83 37 203 c 0
 37 228 41 252 48 273 c 1
 74 406 165 560 267 646 c 0
 310 680 369 710 428 710 c 0
 440 710 452 708 464 706 c 0
 515 696 546 673 578 646 c 0
 615 600 633 542 633 487 c 0
 633 484 633 481 633 478 c 0
 631 396 632 306 575 236 c 0
 539 194 502 143 439 135 c 0
 436 135 432 135 429 135 c 0
 403 135 382 143 359 143 c 0
 349 143 338 142 327 137 c 0
 307 119 264 96 230 96 c 0
 218 96 207 99 199 106 c 0
 177 120 152 146 152 195 c 0
 152 200 152 207 153 213 c 0
 160 255 175 299 208 330 c 0
 239 348 265 374 317 374 c 0
 319 374 322 374 325 374 c 0
 374 359 391 317 391 277 c 0
 391 269 390 261 389 254 c 0
 385 241 382 228 382 218 c 0
 382 202 389 191 415 190 c 0
 463 190 490 233 519 262 c 1
 533 297 559 337 569 374 c 0
 575 398 578 420 578 441 c 0
 578 480 570 517 563 559 c 0
 554 610 507 631 457 649 c 0
 447 651 437 652 428 652 c 0
 401 652 377 644 351 631 c 0
 274 574 208 508 173 431 c 0
 139 358 101 297 100 223 c 0
 102 162 129 105 153 47 c 0
 179 -8 212 -44 274 -63 c 1
 349 -54 402 -6 427 56 c 0
 436 85 437 101 448 101 c 0
 453 101 460 98 470 92 c 1
 479 78 483 63 483 48 c 0
 483 20 471 -8 455 -30 c 0
 422 -82 347 -121 281 -121 c 0
 271 -121 261 -120 251 -118 c 0
302 184 m 0
 318 200 322 223 323 245 c 0
 323 250 323 256 323 261 c 0
 323 279 322 297 318 315 c 0
 315 323 304 323 297 321 c 0
 278 316 262 304 248 291 c 0
 234 279 223 263 217 246 c 0
 213 238 209 229 209 220 c 0
 209 216 210 212 212 208 c 0
 218 195 226 183 236 174 c 0
 244 168 253 164 263 164 c 0
 267 164 271 165 275 166 c 0
 285 170 294 176 302 184 c 0
EndSplineSet
Validated: 1
EndChar

StartChar: Odieresis
Encoding: 214 214 88
Width: 496
VWidth: 0
Flags: HW
LayerCount: 2
Fore
SplineSet
108 2 m 0
 75 24 57 62 39 95 c 0
 5 158 15 233 24 302 c 0
 32 365 51 425 70 485 c 0
 95 572 116 665 172 739 c 0
 188 761 215 777 242 777 c 0
 251 777 260 775 269 771 c 0
 295 758 320 738 334 712 c 1
 365 711 408 717 416 675 c 0
 423 652 425 628 425 604 c 0
 425 560 417 516 409 473 c 0
 382 355 344 239 288 131 c 0
 258 78 224 18 162 -2 c 0
 156 -5 149 -6 143 -6 c 0
 131 -6 119 -2 108 2 c 0
205 141 m 0
 262 201 293 280 315 359 c 0
 334 428 353 497 362 568 c 0
 366 592 347 581 348 564 c 0
 340 544 335 520 319 505 c 1
 300 512 292 536 291 555 c 0
 292 560 292 564 292 569 c 0
 292 595 283 621 275 646 c 0
 271 662 256 679 240 679 c 0
 234 679 229 677 223 672 c 0
 190 644 174 602 157 564 c 0
 115 459 92 346 81 234 c 0
 80 224 79 215 79 205 c 0
 79 178 85 151 101 128 c 0
 110 115 124 100 140 100 c 0
 144 100 148 101 153 103 c 0
 173 112 190 125 205 141 c 0
394 820 m 2
 390 828 391 839 399 851 c 0
 406 861 413 884 416 902 c 0
 421 932 424 936 443 937 c 0
 463 938 464 937 466 915 c 0
 467 909 467 904 467 898 c 0
 467 863 457 828 442 819 c 0
 431 812 421 809 413 809 c 0
 405 809 398 812 394 820 c 1
 394 820 l 2
228 834 m 1
 220 837 216 848 216 863 c 0
 216 891 230 932 252 953 c 0
 261 962 269 962 280 956 c 0
 288 951 292 947 292 935 c 0
 292 925 289 909 283 882 c 0
 274 843 267 829 250 829 c 0
 244 829 237 831 228 834 c 1
 228 834 l 1
EndSplineSet
Validated: 33
EndChar

StartChar: ntilde
Encoding: 241 241 89
Width: 549
VWidth: 0
Flags: HW
LayerCount: 2
Fore
SplineSet
387 428 m 0
 367 431 350 446 338 463 c 0
 314 479 295 501 270 516 c 0
 258 524 241 519 234 506 c 0
 223 490 217 467 196 463 c 0
 194 463 193 463 191 463 c 0
 173 463 156 481 156 501 c 0
 156 502 156 502 156 503 c 0
 156 504 156 505 156 506 c 0
 156 525 174 532 186 541 c 0
 201 555 205 580 224 590 c 0
 229 593 235 594 240 594 c 0
 253 594 265 587 276 580 c 0
 310 558 336 525 366 498 c 0
 376 489 388 483 401 483 c 0
 407 483 414 485 420 488 c 0
 449 503 466 533 487 557 c 0
 493 569 513 581 516 560 c 0
 518 554 518 547 518 540 c 0
 518 526 515 512 505 502 c 0
 495 487 489 468 475 455 c 0
 459 437 436 426 413 426 c 0
 412 426 411 426 410 426 c 0
 402 426 395 427 387 428 c 0
50 -12 m 1
 42 -4 37 9 37 21 c 0
 37 37 44 52 60 58 c 0
 84 67 84 95 86 116 c 0
 97 186 121 254 127 325 c 0
 130 347 130 371 142 391 c 0
 151 399 162 402 174 402 c 0
 188 402 202 398 213 390 c 0
 220 382 223 372 223 362 c 0
 223 349 218 335 216 322 c 0
 212 297 200 274 193 249 c 1
 228 282 270 307 306 339 c 0
 335 358 370 370 405 370 c 0
 417 370 428 368 440 365 c 0
 459 358 466 338 466 319 c 0
 466 312 465 306 464 300 c 0
 459 236 449 173 433 111 c 0
 432 98 426 83 426 70 c 0
 426 62 428 54 435 47 c 0
 442 41 446 32 446 24 c 0
 446 15 440 7 427 7 c 0
 426 7 l 0
 412 2 396 -1 381 -1 c 0
 366 -1 351 2 337 8 c 0
 328 12 325 19 325 27 c 0
 325 39 333 53 342 61 c 0
 360 74 356 97 362 116 c 0
 369 149 376 182 384 214 c 0
 387 230 390 246 390 262 c 0
 390 269 389 276 388 283 c 0
 384 290 379 293 373 293 c 0
 359 293 343 278 333 270 c 0
 298 244 265 215 231 188 c 0
 193 157 178 108 169 62 c 0
 167 38 156 17 141 -2 c 0
 125 -15 104 -21 83 -21 c 0
 76 -21 69 -21 62 -19 c 0
 58 -18 53 -15 50 -12 c 1
 50 -12 l 1
EndSplineSet
Validated: 33
EndChar

StartChar: Udieresis
Encoding: 220 220 90
Width: 582
VWidth: 0
Flags: HW
LayerCount: 2
Fore
SplineSet
90 6 m 0
 -64 183 17 488 73 681 c 0
 75 700 90 747 108 747 c 0
 113 747 119 742 125 732 c 0
 135 712 143 721 143 717 c 0
 143 714 140 706 131 682 c 0
 109 606 84 470 70 393 c 0
 65 345 60 297 60 248 c 0
 60 214 63 179 68 145 c 0
 75 116 97 76 129 76 c 0
 132 76 135 76 138 77 c 0
 177 99 195 143 217 180 c 0
 261 264 299 352 343 436 c 0
 355 484 399 503 399 585 c 0
 399 597 398 609 396 624 c 0
 401 678 398 820 445 833 c 1
 461 811 454 771 459 741 c 0
 461 691 462 641 462 591 c 0
 462 563 462 535 462 507 c 0
 462 409 463 312 477 215 c 0
 485 163 504 113 534 69 c 0
 542 61 545 49 545 37 c 0
 545 15 534 -8 514 -8 c 0
 511 -8 508 -8 505 -7 c 1
 469 22 450 66 428 106 c 0
 387 196 397 298 387 394 c 0
 384 401 381 405 378 405 c 0
 367 405 358 357 354 344 c 0
 321 245 275 149 217 62 c 0
 195 30 160 -2 120 -2 c 0
 114 -2 107 -2 101 0 c 0
 100 3 90 2 90 6 c 0
411 918 m 2
 409 921 408 924 408 928 c 0
 408 934 411 942 416 950 c 0
 423 961 431 986 434 1005 c 0
 439 1037 442 1040 462 1042 c 0
 466 1042 468 1043 471 1043 c 0
 483 1043 484 1038 486 1019 c 0
 486 1014 487 1008 487 1003 c 0
 487 965 475 927 460 916 c 0
 450 909 440 905 432 905 c 0
 423 905 416 910 411 918 c 1
 411 918 l 2
127 901 m 1
 119 904 115 915 115 930 c 0
 115 959 130 1002 151 1023 c 0
 160 1032 167 1034 178 1027 c 0
 186 1022 190 1017 190 1005 c 0
 190 994 187 977 181 950 c 0
 172 910 165 896 149 896 c 0
 143 896 136 898 127 901 c 1
 127 901 l 1
EndSplineSet
Validated: 33
EndChar

StartChar: Adieresis
Encoding: 196 196 91
Width: 587
VWidth: 0
Flags: HW
LayerCount: 2
Fore
SplineSet
9 12 m 0
 -17 37 15 70 28 93 c 0
 61 139 90 188 116 239 c 0
 149 292 179 349 205 406 c 0
 255 496 302 589 343 684 c 0
 359 723 378 760 388 801 c 1
 397 810 409 814 421 814 c 0
 441 814 459 802 460 778 c 0
 480 681 477 581 484 482 c 0
 489 398 520 218 520 107 c 0
 520 52 513 14 490 14 c 0
 484 14 477 16 469 22 c 1
 451 77 442 145 417 242 c 1
 403 248 380 250 356 250 c 0
 320 250 279 246 256 246 c 0
 254 246 252 246 250 246 c 0
 214 246 188 219 173 189 c 0
 139 134 111 76 76 22 c 0
 66 10 49 1 34 1 c 0
 25 1 16 5 9 12 c 0
420 339 m 0
 420 355 421 370 421 386 c 0
 421 442 418 499 415 555 c 0
 413 575 413 596 406 615 c 0
 398 627 384 610 379 603 c 0
 375 590 368 577 362 565 c 0
 310 483 281 406 229 331 c 0
 229 319 249 320 259 318 c 0
 303 314 348 314 392 314 c 0
 403 314 419 316 419 330 c 0
 419 333 420 336 420 339 c 0
300 862 m 0
 297 871 298 881 305 888 c 0
 311 899 312 911 312 923 c 0
 314 940 322 957 336 968 c 0
 343 973 353 975 360 969 c 0
 369 962 371 951 372 940 c 0
 372 937 372 934 372 931 c 0
 372 916 370 901 364 888 c 0
 362 883 358 878 353 874 c 0
 344 863 354 865 342 857 c 0
 333 853 325 849 315 848 c 0
 307 848 302 856 300 862 c 0
477 863 m 2
 473 870 475 881 482 892 c 0
 488 902 495 923 498 940 c 0
 503 968 504 971 522 972 c 0
 540 973 541 972 543 952 c 0
 543 947 544 943 544 938 c 0
 544 904 534 870 521 861 c 0
 512 855 503 852 496 852 c 0
 488 852 481 856 477 863 c 1
 477 863 l 2
EndSplineSet
Validated: 33
EndChar

StartChar: ecircumflex
Encoding: 234 234 92
Width: 475
VWidth: 0
Flags: HW
LayerCount: 2
Fore
SplineSet
117 502 m 0
 108 506 103 515 103 524 c 0
 103 528 104 532 106 536 c 0
 113 554 132 565 137 584 c 0
 154 614 178 638 195 667 c 0
 213 695 227 726 254 748 c 0
 262 755 272 759 282 759 c 0
 289 759 295 757 301 752 c 0
 313 741 318 726 319 710 c 0
 324 686 338 664 342 639 c 0
 348 614 368 593 368 566 c 0
 368 565 368 565 368 564 c 0
 368 549 356 535 340 535 c 0
 339 535 337 535 336 535 c 0
 316 537 300 555 298 575 c 0
 291 604 284 634 271 662 c 0
 270 662 270 662 269 662 c 0
 260 662 253 643 247 637 c 0
 222 598 202 556 174 519 c 0
 166 508 153 496 139 496 c 0
 136 496 134 496 131 497 c 0
 126 498 121 500 117 502 c 0
174 26 m 0
 123 38 73 62 39 103 c 0
 29 117 26 133 26 149 c 0
 26 173 34 198 45 219 c 0
 65 254 88 288 110 323 c 0
 137 356 171 384 208 406 c 0
 214 411 221 413 228 413 c 0
 241 413 256 406 266 398 c 0
 284 385 300 367 300 344 c 0
 300 343 300 343 300 342 c 0
 300 337 300 332 300 327 c 0
 300 283 291 238 260 206 c 0
 229 171 186 155 147 132 c 0
 139 128 137 124 137 120 c 0
 137 109 159 100 171 98 c 0
 194 89 218 86 242 86 c 0
 266 86 290 89 314 92 c 0
 341 97 371 100 394 116 c 0
 400 126 412 135 424 135 c 0
 430 135 436 133 441 127 c 0
 448 118 451 106 451 94 c 0
 451 82 448 69 440 60 c 0
 413 32 372 25 335 19 c 0
 314 16 292 15 271 15 c 0
 239 15 206 18 174 26 c 0
158 213 m 0
 205 239 226 262 238 300 c 0
 241 309 242 317 242 322 c 0
 242 329 239 333 234 333 c 0
 228 333 218 328 205 318 c 0
 172 293 159 280 134 242 c 0
 116 216 107 200 107 194 c 0
 107 192 108 190 110 190 c 0
 116 190 132 198 158 213 c 0
EndSplineSet
Validated: 1
EndChar

StartChar: questiondown
Encoding: 191 191 93
Width: 444
VWidth: 0
Flags: HW
LayerCount: 2
Fore
SplineSet
117 -173 m 0
 72 -133 27 -82 26 -19 c 0
 23 29 59 67 87 102 c 0
 117 140 154 175 171 222 c 0
 174 232 175 243 175 253 c 0
 175 278 167 302 145 316 c 0
 125 328 107 346 107 369 c 0
 107 372 107 374 108 377 c 0
 108 378 108 380 108 381 c 0
 108 403 129 409 148 409 c 0
 152 409 156 409 160 408 c 0
 161 408 162 408 163 408 c 0
 190 408 216 396 230 374 c 0
 247 350 250 329 259 300 c 0
 258 263 254 223 239 190 c 0
 209 127 169 71 134 12 c 0
 125 1 120 -12 120 -24 c 0
 120 -34 123 -44 132 -53 c 0
 143 -74 179 -107 207 -107 c 0
 210 -107 212 -107 214 -106 c 0
 282 -90 307 -11 369 17 c 0
 393 17 394 -22 399 -41 c 0
 399 -43 399 -45 399 -47 c 0
 399 -80 370 -101 349 -124 c 0
 315 -150 256 -198 223 -198 c 0
 221 -198 220 -198 218 -198 c 0
 184 -198 146 -195 117 -173 c 0
123 567 m 1
 106 583 98 593 98 604 c 0
 98 613 103 622 113 634 c 0
 124 648 137 654 150 654 c 0
 175 654 197 631 197 597 c 0
 197 595 197 592 197 590 c 0
 195 559 183 544 166 544 c 0
 154 544 139 551 123 567 c 1
 123 567 l 1
EndSplineSet
Validated: 33
EndChar

StartChar: bar
Encoding: 124 124 94
Width: 332
VWidth: 0
Flags: HW
LayerCount: 2
Fore
SplineSet
128 25 m 0
 106 47 116 81 116 109 c 0
 125 232 147 354 147 478 c 0
 147 481 147 483 147 486 c 0
 145 497 144 508 144 519 c 0
 144 552 152 585 161 617 c 0
 165 635 167 653 167 672 c 0
 167 689 165 707 163 724 c 0
 163 727 163 730 163 733 c 0
 163 760 175 791 204 796 c 0
 209 797 214 798 219 798 c 0
 240 798 260 785 260 761 c 0
 262 744 263 727 263 710 c 0
 263 663 257 614 253 568 c 0
 242 459 232 350 225 241 c 0
 219 174 214 106 200 40 c 0
 195 19 180 9 163 9 c 0
 151 9 138 15 128 25 c 0
EndSplineSet
Validated: 33
EndChar

StartChar: percent
Encoding: 37 37 95
Width: 659
VWidth: 0
Flags: HW
LayerCount: 2
Fore
SplineSet
63 47 m 0
 58 54 56 60 56 65 c 0
 56 86 91 95 101 117 c 0
 137 159 170 202 196 250 c 0
 226 306 261 361 281 421 c 0
 313 479 353 532 380 593 c 0
 418 667 458 741 504 810 c 0
 507 812 510 813 513 813 c 0
 528 813 541 790 541 770 c 0
 541 761 538 753 532 748 c 0
 504 726 495 694 479 664 c 0
 399 520 321 375 246 229 c 0
 228 195 211 160 189 128 c 0
 172 87 158 38 114 18 c 0
 109 16 104 15 100 15 c 0
 83 15 69 29 63 47 c 0
81 449 m 0
 40 458 19 487 19 542 c 0
 19 543 19 543 19 544 c 0
 19 606 58 714 81 714 c 0
 90 714 102 722 106 732 c 0
 112 745 134 750 182 750 c 0
 245 750 251 747 271 711 c 0
 287 681 298 644 298 613 c 0
 298 608 298 604 297 599 c 0
 296 592 270 553 240 513 c 0
 200 459 179 441 141 441 c 0
 125 441 106 444 81 449 c 0
220 652 m 1
 220 691 207 711 189 711 c 0
 168 711 139 685 111 635 c 0
 91 599 81 575 81 555 c 0
 81 542 85 531 92 520 c 0
 102 504 108 495 117 495 c 0
 127 495 141 508 168 537 c 0
 197 568 220 619 220 652 c 2
 220 652 l 1
386 37 m 0
 346 59 308 92 300 139 c 0
 299 145 298 151 298 157 c 0
 298 198 321 237 345 269 c 0
 361 292 376 314 388 339 c 1
 410 352 436 351 461 354 c 0
 480 355 499 356 518 356 c 0
 551 356 585 354 617 348 c 0
 641 342 642 316 642 296 c 0
 641 247 622 202 605 157 c 0
 594 133 584 107 570 85 c 0
 541 48 499 24 454 13 c 0
 452 13 450 13 448 13 c 0
 426 13 406 27 386 37 c 0
512 140 m 1
 550 172 568 208 568 238 c 0
 568 273 542 299 493 299 c 0
 417 299 367 236 367 140 c 0
 367 108 385 93 412 93 c 0
 439 93 475 108 512 140 c 1
 512 140 l 1
EndSplineSet
Validated: 5
EndChar

StartChar: backslash
Encoding: 92 92 96
Width: 434
VWidth: 0
Flags: HW
LayerCount: 2
Fore
SplineSet
328 45 m 0
 308 65 295 90 286 116 c 0
 259 163 231 211 216 264 c 0
 202 306 175 342 158 383 c 0
 120 470 26 529 -6 610 c 0
 -8 615 -9 619 -9 624 c 0
 -9 651 20 673 47 673 c 0
 49 673 51 673 53 673 c 0
 55 673 57 673 59 673 c 0
 92 673 96 636 112 613 c 0
 143 562 179 515 214 468 c 0
 251 410 271 344 304 284 c 0
 326 242 391 129 393 91 c 0
 403 61 417 83 426 53 c 0
 421 34 396 11 373 11 c 0
 369 11 365 11 361 13 c 0
 348 22 338 34 328 45 c 0
EndSplineSet
Validated: 1
EndChar

StartChar: asciicircum
Encoding: 94 94 97
Width: 419
VWidth: 0
Flags: HW
LayerCount: 2
Fore
SplineSet
80 623 m 0
 71 626 65 635 65 644 c 0
 65 647 65 650 67 653 c 0
 74 672 97 681 103 701 c 0
 122 730 147 754 167 782 c 0
 186 808 201 837 227 856 c 0
 237 864 251 871 265 871 c 0
 272 871 278 869 284 865 c 0
 297 855 306 839 307 823 c 0
 312 799 328 779 332 755 c 0
 338 731 358 714 361 689 c 0
 361 688 361 686 361 685 c 0
 361 669 346 654 330 654 c 0
 329 654 l 0
 307 654 285 671 282 693 c 0
 274 721 266 750 252 776 c 0
 251 776 250 777 249 777 c 0
 240 777 233 759 226 753 c 0
 198 716 174 675 144 639 c 0
 134 627 120 616 105 616 c 0
 102 616 99 616 96 617 c 0
 91 618 85 621 80 623 c 0
EndSplineSet
Validated: 1
EndChar

StartChar: underscore
Encoding: 95 95 98
Width: 515
VWidth: 0
Flags: HW
LayerCount: 2
Fore
SplineSet
193 -93 m 0
 189 -93 185 -93 181 -93 c 0
 158 -93 135 -94 112 -94 c 0
 90 -94 68 -93 47 -89 c 0
 31 -87 17 -74 17 -57 c 0
 17 -55 17 -54 17 -52 c 0
 17 -51 17 -51 17 -50 c 0
 17 -35 26 -19 41 -14 c 0
 77 -1 117 -2 155 0 c 0
 192 1 230 1 268 1 c 0
 314 1 360 1 406 -1 c 0
 431 -3 456 -2 478 -14 c 0
 484 -18 486 -24 486 -30 c 0
 486 -41 480 -53 476 -62 c 0
 471 -78 456 -87 441 -87 c 0
 440 -87 438 -87 437 -87 c 0
 413 -87 389 -85 365 -85 c 0
 343 -85 322 -87 300 -92 c 0
 287 -96 273 -97 260 -97 c 0
 237 -97 214 -94 193 -93 c 0
EndSplineSet
Validated: 1
EndChar

StartChar: grave
Encoding: 96 96 99
Width: 261
VWidth: 0
Flags: HW
LayerCount: 2
Fore
SplineSet
194 685 m 0
 190 678 185 674 180 674 c 0
 169 674 155 692 132 732 c 0
 114 765 95 797 91 803 c 0
 83 815 72 848 72 861 c 0
 72 865 77 869 83 871 c 0
 84 871 84 871 85 871 c 0
 99 871 131 834 153 791 c 0
 163 771 174 750 178 744 c 0
 190 725 197 709 197 697 c 0
 197 692 196 688 194 685 c 0
EndSplineSet
Validated: 1
EndChar

StartChar: periodcentered
Encoding: 183 183 100
Width: 275
VWidth: 0
Flags: HW
LayerCount: 2
Fore
SplineSet
135 366 m 2
 127 376 125 387 127 398 c 0
 133 426 141 434 164 434 c 0
 181 434 188 430 193 415 c 0
 196 405 198 398 198 393 c 0
 198 385 194 379 185 368 c 0
 177 358 168 352 159 352 c 0
 151 352 143 357 135 366 c 1
 135 366 l 2
EndSplineSet
Validated: 33
EndChar

StartChar: dollar
Encoding: 36 36 101
Width: 635
VWidth: 0
Flags: HW
LayerCount: 2
Fore
SplineSet
128 -44 m 1
 125 -35 124 -26 124 -18 c 0
 124 38 180 89 191 145 c 1
 180 163 163 165 155 165 c 0
 152 165 151 165 151 165 c 1
 137 124 109 53 92 22 c 0
 83 4 65 -9 48 -9 c 0
 36 -9 25 -3 19 13 c 1
 32 92 63 137 85 186 c 1
 70 212 9 269 9 302 c 0
 9 304 10 305 10 307 c 0
 18 319 27 324 37 324 c 0
 59 324 83 298 91 276 c 1
 95 273 99 272 102 272 c 0
 124 272 132 327 137 346 c 0
 151 376 152 412 174 441 c 0
 177 449 178 456 178 463 c 0
 178 495 154 523 154 556 c 0
 154 557 154 557 154 558 c 0
 154 559 154 561 154 562 c 0
 154 602 202 617 229 636 c 1
 255 679 279 725 293 774 c 1
 293 776 293 777 293 779 c 0
 293 801 315 817 336 817 c 0
 348 817 359 812 365 801 c 0
 367 796 368 792 368 787 c 0
 368 757 328 734 327 698 c 0
 327 691 328 688 331 688 c 0
 340 688 362 727 366 736 c 0
 370 757 393 789 414 789 c 0
 422 789 429 785 435 775 c 1
 435 770 436 766 436 762 c 0
 436 741 430 724 407 695 c 1
 431 690 468 687 501 687 c 0
 520 687 538 688 552 690 c 0
 556 691 560 692 564 692 c 0
 582 692 594 680 594 668 c 0
 594 659 587 650 569 648 c 0
 524 635 477 626 430 626 c 0
 417 626 405 627 392 628 c 1
 366 608 366 564 351 534 c 0
 346 518 337 496 337 479 c 0
 337 464 344 452 365 449 c 1
 398 425 434 401 452 364 c 0
 457 350 459 336 459 322 c 0
 459 253 408 183 338 170 c 0
 307 156 254 165 246 124 c 0
 236 83 226 42 204 5 c 0
 198 -22 183 -53 156 -53 c 0
 149 -53 142 -51 134 -47 c 2
 128 -44 l 1
 128 -44 l 1
345 222 m 0
 363 230 377 246 388 262 c 0
 394 272 399 283 401 294 c 0
 402 301 405 307 407 314 c 0
 407 315 407 315 407 316 c 0
 407 328 399 340 391 348 c 0
 377 362 361 375 343 384 c 0
 336 389 329 382 327 375 c 0
 316 350 309 323 303 296 c 0
 298 272 292 248 292 224 c 0
 291 217 296 208 304 209 c 0
 319 210 331 217 345 222 c 0
215 264 m 2
 218 275 230 295 231 309 c 0
 232 323 242 342 245 361 c 0
 246 371 247 378 247 384 c 0
 247 401 242 406 234 406 c 0
 228 406 215 406 193 300 c 0
 189 280 187 270 187 264 c 0
 187 258 189 256 194 252 c 0
 208 241 209 242 215 264 c 1
 215 264 l 2
280 530 m 0
 288 546 297 584 297 599 c 0
 297 603 296 605 295 605 c 0
 282 605 251 543 251 521 c 0
 251 518 251 515 253 514 c 0
 264 507 271 512 280 530 c 0
EndSplineSet
Validated: 5
EndChar

StartChar: ampersand
Encoding: 38 38 102
Width: 635
VWidth: 0
Flags: HW
LayerCount: 2
Fore
SplineSet
368 -2 m 0
 351 18 333 37 316 57 c 1
 289 32 262 0 222 0 c 0
 213 -1 204 -1 195 -1 c 0
 150 -1 101 9 78 52 c 0
 62 86 52 123 52 161 c 0
 52 172 53 184 55 195 c 1
 87 258 159 304 213 341 c 1
 221 357 222 375 222 392 c 0
 222 402 222 415 222 425 c 0
 222 432 222 439 223 446 c 0
 229 535 246 625 286 705 c 0
 320 765 386 799 454 799 c 0
 473 799 493 795 511 790 c 0
 549 784 580 754 584 715 c 0
 585 707 586 699 586 691 c 0
 586 619 550 553 514 494 c 0
 470 425 417 362 354 311 c 1
 348 302 346 294 346 286 c 0
 346 262 368 241 377 204 c 0
 377 203 377 203 377 202 c 0
 377 105 437 52 489 22 c 1
 494 14 496 8 496 4 c 0
 496 -7 484 -12 483 -36 c 0
 479 -55 468 -62 455 -62 c 0
 436 -62 413 -48 400 -34 c 0
 389 -24 378 -13 368 -2 c 0
273 103 m 0
 288 119 291 140 292 162 c 0
 292 165 292 169 292 172 c 0
 292 198 288 224 276 247 c 0
 271 257 261 266 250 266 c 0
 249 266 248 266 247 266 c 0
 232 264 217 255 211 241 c 0
 198 222 159 199 159 199 c 2
 135 184 125 168 125 141 c 0
 125 140 125 138 125 137 c 0
 125 121 127 95 142 88 c 0
 159 80 177 77 195 77 c 0
 205 77 216 78 226 80 c 0
 243 84 261 91 273 103 c 0
353 436 m 0
 389 476 423 520 455 563 c 0
 468 580 480 598 487 618 c 0
 496 641 505 664 508 689 c 0
 508 690 l 0
 508 705 490 706 483 717 c 0
 477 726 468 735 457 735 c 0
 454 735 450 734 446 732 c 0
 418 719 392 702 369 680 c 0
 347 655 336 621 326 589 c 0
 314 547 304 502 304 458 c 0
 304 454 304 451 304 447 c 0
 305 435 305 420 317 414 c 0
 318 414 318 414 319 414 c 0
 331 414 341 425 350 433 c 0
 351 434 352 435 353 436 c 0
EndSplineSet
Validated: 1
EndChar

StartChar: plus
Encoding: 43 43 103
Width: 560
VWidth: 0
Flags: HW
LayerCount: 2
Fore
SplineSet
208 135 m 0
 196 148 194 163 194 179 c 0
 194 189 195 199 195 208 c 0
 195 210 195 211 195 213 c 0
 196 234 198 256 198 277 c 0
 198 291 197 305 194 319 c 0
 190 326 185 328 179 328 c 0
 165 328 147 314 132 314 c 0
 131 314 129 314 128 314 c 0
 120 313 112 313 103 313 c 0
 80 313 56 317 44 339 c 0
 38 348 35 359 35 370 c 0
 35 390 44 410 60 421 c 1
 73 417 84 415 94 415 c 0
 130 415 154 435 193 435 c 0
 198 435 203 435 209 434 c 1
 215 477 217 551 217 615 c 0
 217 627 217 638 217 649 c 0
 218 659 221 661 224 661 c 0
 229 661 235 656 241 656 c 0
 245 656 250 658 253 667 c 1
 257 672 262 674 265 674 c 0
 278 674 282 642 282 620 c 0
 282 614 282 609 281 605 c 0
 282 583 283 566 283 548 c 0
 283 533 282 517 280 498 c 0
 279 494 279 489 279 485 c 0
 279 462 290 438 311 438 c 0
 313 438 316 438 318 439 c 0
 373 444 432 486 488 488 c 0
 510 488 527 467 527 447 c 0
 527 439 524 431 518 424 c 0
 509 402 484 396 462 396 c 0
 429 395 402 375 371 368 c 0
 349 359 297 352 275 343 c 1
 271 284 261 220 251 158 c 0
 248 140 240 120 228 120 c 0
 222 120 216 124 208 135 c 0
EndSplineSet
Validated: 1
EndChar

StartChar: numbersign
Encoding: 35 35 104
Width: 632
VWidth: 0
Flags: HW
LayerCount: 2
Fore
SplineSet
339 795 m 0
 348 794 360 775 372 775 c 0
 373 775 375 776 376 776 c 1
 376 773 377 770 377 767 c 0
 377 741 363 716 357 691 c 0
 339 642 321 594 303 545 c 1
 356 545 409 545 463 545 c 1
 488 621 515 697 550 769 c 0
 552 773 554 775 557 775 c 0
 566 775 578 756 589 756 c 0
 590 756 592 756 593 757 c 1
 593 754 594 750 594 747 c 0
 594 721 581 696 575 672 c 0
 559 629 543 586 527 543 c 1
 553 542 581 542 604 532 c 0
 611 528 614 522 614 516 c 0
 614 507 607 496 602 488 c 0
 597 474 582 466 565 466 c 0
 563 466 561 466 559 466 c 0
 539 466 519 467 499 468 c 1
 483 426 467 384 451 343 c 1
 463 342 474 342 485 342 c 0
 512 340 542 341 566 330 c 0
 573 326 576 320 576 315 c 0
 576 305 569 295 564 287 c 0
 559 272 543 264 524 264 c 0
 523 264 522 264 521 264 c 0
 495 265 469 266 442 266 c 0
 436 266 429 266 423 266 c 1
 410 218 391 175 378 128 c 1
 360 81 344 33 326 -14 c 0
 322 -22 309 -43 302 -27 c 1
 288 -17 269 -4 269 19 c 0
 269 23 270 27 271 32 c 0
 285 84 317 126 335 176 c 0
 344 204 354 232 365 259 c 1
 352 256 338 255 324 255 c 0
 300 255 275 258 251 259 c 0
 245 259 239 259 233 259 c 0
 197 259 l 1
 185 221 171 185 160 148 c 0
 143 100 126 52 108 5 c 0
 104 -3 91 -24 85 -7 c 1
 71 2 51 15 51 38 c 0
 51 42 52 46 53 51 c 0
 67 103 99 145 118 195 c 0
 124 217 131 238 139 259 c 1
 122 259 106 261 89 263 c 0
 71 265 55 276 55 291 c 0
 55 293 56 294 56 296 c 1
 56 297 56 297 56 298 c 0
 56 311 66 325 83 330 c 0
 111 338 141 340 171 341 c 1
 174 352 178 362 181 373 c 0
 191 402 201 431 211 460 c 1
 183 460 155 461 127 465 c 0
 109 467 93 478 93 493 c 0
 93 495 94 496 94 498 c 1
 94 499 94 499 94 500 c 0
 94 513 104 527 121 532 c 0
 158 542 199 542 238 544 c 1
 266 627 294 710 332 788 c 0
 334 793 337 795 339 795 c 0
437 466 m 1
 427 465 417 464 407 462 c 0
 392 458 377 457 362 457 c 0
 338 457 313 460 289 461 c 0
 283 461 277 461 271 461 c 1
 256 422 241 382 226 343 c 1
 264 343 302 343 339 343 c 0
 358 343 377 343 396 343 c 0
 397 347 398 350 399 353 c 0
 412 391 425 428 437 466 c 1
EndSplineSet
Validated: 1
EndChar

StartChar: degree
Encoding: 176 176 105
Width: 296
VWidth: 0
Flags: HW
LayerCount: 2
Fore
SplineSet
122 617 m 0
 91 628 64 655 57 688 c 0
 53 711 62 735 75 754 c 0
 83 765 93 774 106 779 c 0
 131 791 158 802 186 802 c 0
 188 802 191 802 193 802 c 0
 213 801 235 789 239 767 c 0
 241 755 242 744 242 732 c 0
 242 722 241 711 240 701 c 0
 235 668 220 634 190 617 c 0
 182 611 172 606 162 606 c 0
 160 606 157 606 155 607 c 0
 144 609 133 613 122 617 c 0
187 694 m 0
 191 709 194 720 194 729 c 0
 194 745 186 752 170 752 c 0
 164 752 157 751 148 749 c 0
 118 742 100 722 100 699 c 0
 100 689 103 678 111 668 c 0
 122 654 134 648 145 648 c 0
 162 648 178 664 187 694 c 0
EndSplineSet
Validated: 33
EndChar

StartChar: section
Encoding: 167 167 106
Width: 545
VWidth: 0
Flags: HW
LayerCount: 2
Fore
SplineSet
124 28 m 0
 90 37 53 42 23 60 c 0
 -1 79 2 131 43 128 c 0
 47 129 51 129 55 129 c 0
 92 129 119 103 156 101 c 0
 184 98 213 86 242 86 c 0
 249 86 256 86 263 88 c 0
 287 104 310 135 310 163 c 0
 310 167 309 171 308 175 c 1
 275 199 229 199 194 219 c 0
 137 250 120 311 120 372 c 0
 120 381 120 390 121 398 c 0
 137 449 152 469 184 525 c 1
 169 551 139 584 139 616 c 0
 139 620 139 623 140 627 c 0
 140 628 140 629 140 630 c 0
 140 660 154 683 197 716 c 0
 255 769 334 778 406 778 c 0
 435 778 463 776 487 776 c 0
 488 776 489 776 490 776 c 0
 507 776 516 760 516 744 c 0
 516 731 510 718 495 718 c 0
 432 710 363 715 301 696 c 0
 265 679 229 654 215 618 c 0
 215 616 215 613 215 611 c 0
 215 581 241 554 271 554 c 0
 274 554 278 554 281 555 c 0
 351 548 399 517 431 472 c 0
 436 462 442 444 442 429 c 0
 442 415 437 403 421 403 c 1
 378 420 360 467 316 481 c 0
 304 481 288 483 273 483 c 0
 251 483 231 479 223 461 c 0
 208 441 190 417 186 390 c 0
 184 383 183 376 183 369 c 0
 183 312 241 258 304 258 c 0
 310 258 316 259 322 260 c 0
 357 268 364 328 371 355 c 0
 370 384 362 387 362 391 c 0
 362 393 364 394 369 399 c 1
 370 399 372 399 373 399 c 0
 405 399 429 371 429 343 c 0
 429 336 427 329 424 323 c 0
 413 287 396 251 370 221 c 1
 364 189 368 154 352 123 c 0
 337 84 320 37 273 22 c 0
 256 16 239 14 221 14 c 0
 188 14 155 22 124 28 c 0
EndSplineSet
Validated: 33
EndChar

StartChar: equal
Encoding: 61 61 107
Width: 481
Flags: HW
LayerCount: 2
Fore
SplineSet
78 384 m 0
 68 397 63 414 63 431 c 0
 63 436 63 440 64 445 c 0
 68 465 90 474 108 477 c 0
 124 480 141 481 157 481 c 0
 185 481 212 478 239 476 c 0
 267 474 295 471 324 468 c 0
 352 465 381 464 409 461 c 0
 417 455 419 446 419 436 c 0
 419 432 418 428 418 424 c 0
 416 411 413 395 399 389 c 0
 368 381 335 381 303 379 c 0
 245 378 186 375 128 370 c 0
 126 370 124 370 122 370 c 0
 106 370 89 371 78 384 c 0
114 222 m 0
 95 232 76 243 63 260 c 0
 62 262 61 265 61 267 c 0
 61 278 72 287 79 294 c 0
 93 304 108 313 125 314 c 0
 133 305 146 306 158 305 c 0
 173 304 187 304 202 304 c 0
 228 304 256 305 282 305 c 0
 306 305 330 304 354 302 c 0
 371 301 394 298 394 278 c 0
 388 249 342 223 322 208 c 1
 270 209 219 208 168 211 c 0
 149 212 130 214 114 222 c 0
EndSplineSet
Validated: 1
EndChar

StartChar: logicalnot
Encoding: 172 172 108
Width: 610
Flags: HW
LayerCount: 2
Fore
SplineSet
463 206 m 0
 451 219 448 237 448 254 c 0
 448 263 449 272 450 281 c 0
 454 321 465 361 469 402 c 1
 390 395 311 391 233 376 c 0
 198 370 166 349 129 347 c 0
 128 347 l 0
 103 347 83 370 83 394 c 0
 83 397 83 400 84 403 c 0
 86 422 103 435 121 435 c 0
 147 448 158 453 185 454 c 0
 190 454 194 454 199 454 c 0
 250 454 301 463 352 467 c 0
 391 470 423 478 468 490 c 0
 474 493 481 495 488 495 c 0
 504 495 521 486 534 477 c 0
 539 472 540 463 540 455 c 0
 540 441 536 426 536 426 c 2
 529 362 530 297 519 234 c 0
 515 218 508 191 487 191 c 0
 486 191 485 191 484 191 c 0
 476 193 469 200 463 206 c 0
EndSplineSet
Validated: 1
EndChar

StartChar: sterling
Encoding: 163 163 109
Width: 613
Flags: HW
LayerCount: 2
Fore
SplineSet
309 -32 m 0
 276 -22 249 -2 223 20 c 0
 195 35 151 44 127 26 c 0
 115 10 96 1 80 1 c 0
 64 1 50 10 49 30 c 0
 49 78 63 95 86 120 c 0
 128 169 156 219 165 295 c 0
 166 304 167 313 167 323 c 0
 167 346 162 369 139 369 c 0
 135 369 131 368 126 367 c 0
 91 369 46 387 41 427 c 0
 41 428 41 428 41 429 c 0
 41 466 87 469 114 473 c 0
 116 473 119 473 121 473 c 0
 145 473 158 489 158 510 c 0
 158 517 157 523 154 531 c 0
 153 543 152 555 152 567 c 0
 152 682 207 794 306 805 c 0
 309 805 313 805 316 805 c 0
 391 805 462 763 512 708 c 0
 540 674 563 631 563 586 c 0
 560 568 554 561 547 561 c 0
 528 561 500 609 488 623 c 0
 453 662 418 715 361 717 c 0
 357 718 353 718 349 718 c 0
 318 718 288 701 268 676 c 0
 239 652 229 615 229 579 c 0
 228 569 228 558 228 546 c 0
 228 518 233 488 259 474 c 0
 318 446 392 456 445 413 c 0
 455 405 458 396 458 387 c 0
 458 367 436 349 413 349 c 0
 409 349 405 349 402 350 c 0
 398 350 394 350 390 350 c 0
 354 350 319 356 284 356 c 0
 274 356 264 355 254 354 c 1
 230 286 217 202 208 143 c 1
 224 109 249 92 287 72 c 0
 304 56 328 45 352 45 c 0
 369 45 386 51 400 64 c 0
 443 90 506 162 536 162 c 0
 544 162 550 157 552 145 c 0
 546 47 463 -27 385 -47 c 0
 382 -47 379 -48 376 -48 c 0
 353 -48 331 -38 309 -32 c 0
EndSplineSet
Validated: 33
EndChar

StartChar: yen
Encoding: 165 165 110
Width: 658
Flags: HW
LayerCount: 2
Fore
SplineSet
148 19 m 1
 145 30 144 41 144 52 c 0
 144 84 153 116 159 146 c 0
 166 184 182 218 200 252 c 1
 176 268 93 269 75 302 c 0
 65 312 59 325 59 336 c 0
 59 352 70 366 91 366 c 0
 94 366 98 366 102 365 c 0
 109 366 116 366 123 366 c 0
 141 366 160 365 180 365 c 0
 198 365 216 365 235 369 c 1
 235 369 236 370 246 404 c 1
 193 410 67 394 67 454 c 0
 67 459 68 465 70 471 c 0
 76 492 94 497 113 497 c 0
 127 497 142 494 154 494 c 0
 156 494 158 494 160 494 c 0
 172 494 189 492 206 492 c 0
 228 492 248 495 252 509 c 1
 178 550 154 727 154 800 c 0
 158 809 167 812 178 812 c 0
 194 812 213 805 221 797 c 0
 228 761 224 724 236 689 c 0
 252 635 293 576 337 539 c 1
 376 584 398 626 440 685 c 0
 460 710 475 725 511 749 c 1
 512 749 513 749 514 749 c 0
 540 749 561 725 561 702 c 0
 561 692 557 683 549 675 c 0
 503 621 462 552 420 488 c 1
 468 462 576 446 613 394 c 0
 615 389 616 385 616 381 c 0
 616 363 597 357 578 357 c 0
 566 357 553 360 544 363 c 0
 494 374 408 407 357 412 c 1
 357 412 333 380 316 347 c 1
 359 344 440 328 480 310 c 0
 489 302 493 293 493 283 c 0
 493 262 476 241 453 241 c 0
 450 241 446 241 442 242 c 0
 401 242 360 259 319 259 c 0
 292 256 l 1
 260 204 233 126 225 63 c 0
 225 37 201 2 175 2 c 0
 167 2 159 5 151 14 c 2
 148 19 l 1
 148 19 l 1
EndSplineSet
Validated: 5
EndChar

StartChar: mu
Encoding: 181 181 111
Width: 610
Flags: HW
LayerCount: 2
Fore
SplineSet
46 -375 m 0
 21 -345 31 -304 42 -271 c 0
 54 -201 65 -131 81 -62 c 0
 104 66 115 197 163 318 c 0
 176 353 190 388 210 420 c 1
 217 423 224 425 230 425 c 0
 261 425 282 386 282 355 c 0
 282 353 282 350 282 348 c 0
 290 296 320 250 355 213 c 1
 359 212 363 211 367 211 c 0
 404 211 427 259 450 282 c 0
 474 304 487 362 523 362 c 0
 529 362 535 361 542 357 c 0
 556 345 560 330 560 314 c 0
 560 294 554 271 554 252 c 0
 554 250 554 247 554 245 c 0
 550 213 550 181 550 149 c 0
 550 117 551 85 551 53 c 0
 552 50 552 46 552 43 c 0
 552 23 537 6 521 6 c 0
 513 6 504 11 498 24 c 0
 474 61 475 106 471 148 c 0
 466 165 460 171 453 171 c 0
 440 171 423 151 390 135 c 0
 383 134 377 133 370 133 c 0
 333 133 299 153 277 184 c 0
 268 192 260 195 253 195 c 0
 232 195 220 168 220 143 c 0
 189 23 154 -97 130 -218 c 0
 121 -268 126 -323 98 -367 c 0
 91 -375 84 -387 71 -387 c 0
 64 -387 56 -384 46 -375 c 0
EndSplineSet
Validated: 33
EndChar

StartChar: cent
Encoding: 162 162 112
Width: 732
Flags: HW
LayerCount: 2
Fore
SplineSet
74 -148 m 0
 19 -134 51 -109 58 -94 c 0
 92 -21 170 129 200 216 c 1
 179 243 148 282 148 321 c 0
 148 327 149 334 151 340 c 0
 187 434 297 507 373 571 c 0
 440 650 467 750 509 841 c 0
 515 855 528 861 544 861 c 0
 569 861 597 846 597 825 c 0
 597 821 596 817 593 812 c 0
 563 750 529 690 505 625 c 1
 531 620 551 595 551 576 c 0
 551 564 544 555 525 555 c 0
 521 555 516 555 511 556 c 0
 509 556 507 556 505 556 c 0
 460 556 438 511 419 480 c 0
 378 408 332 338 308 259 c 0
 307 255 307 252 307 249 c 0
 307 212 375 220 406 216 c 0
 479 217 558 217 623 252 c 0
 633 260 649 263 665 263 c 0
 689 263 713 255 713 242 c 0
 713 235 706 227 691 217 c 1
 593 186 493 161 391 161 c 0
 350 161 308 165 266 174 c 1
 225 80 167 -30 124 -122 c 0
 116 -139 109 -153 93 -153 c 0
 88 -153 81 -152 74 -148 c 0
238 370 m 0
 230 358 224 343 220 329 c 0
 218 319 217 308 225 300 c 0
 229 293 241 287 243 291 c 0
 256 309 268 337 278 357 c 0
 289 380 327 444 333 468 c 1
 296 438 262 407 238 370 c 0
EndSplineSet
Validated: 33
EndChar

StartChar: copyright
Encoding: 169 169 113
Width: 730
Flags: HW
LayerCount: 2
Fore
SplineSet
299 7 m 0
 240 24 191 63 138 92 c 0
 82 135 41 199 34 270 c 0
 25 416 60 537 142 641 c 0
 194 698 284 757 354 768 c 0
 376 774 396 776 416 776 c 0
 493 776 557 738 601 695 c 0
 645 662 677 614 688 560 c 0
 697 523 702 485 702 447 c 0
 702 380 688 313 664 251 c 0
 656 219 633 195 620 166 c 0
 603 128 574 98 543 71 c 0
 512 46 481 21 443 8 c 0
 421 1 397 -2 374 -2 c 0
 349 -2 323 2 299 7 c 0
526 170 m 0
 564 229 603 296 609 360 c 0
 616 410 618 461 622 511 c 0
 622 562 590 608 550 637 c 0
 521 655 502 673 489 696 c 0
 479 705 463 709 445 709 c 0
 381 709 283 663 255 636 c 0
 201 589 161 526 145 456 c 0
 133 404 117 355 117 304 c 0
 117 289 118 274 121 259 c 0
 158 172 261 99 341 73 c 1
 420 75 474 110 526 170 c 0
212 250 m 0
 196 271 189 297 189 323 c 0
 189 348 195 372 204 395 c 0
 222 440 248 482 275 522 c 0
 301 556 332 589 368 612 c 0
 389 624 414 635 438 635 c 0
 448 635 457 633 467 629 c 0
 482 621 489 605 489 588 c 0
 489 577 486 565 481 556 c 0
 470 540 447 547 430 543 c 0
 402 531 383 506 362 485 c 0
 331 449 295 399 276 355 c 0
 275 352 274 350 274 347 c 0
 274 313 365 294 394 294 c 0
 396 294 398 294 399 294 c 0
 453 307 490 315 511 315 c 0
 519 315 524 314 528 312 c 0
 531 307 532 298 532 287 c 0
 532 269 529 245 523 228 c 1
 486 204 437 195 389 195 c 0
 314 195 240 218 212 250 c 0
EndSplineSet
Validated: 33
EndChar

StartChar: NameMe.256
Encoding: 256 8222 114
Width: 316
Flags: HW
LayerCount: 2
Fore
SplineSet
145 -88 m 1
 144 -86 143 -82 143 -78 c 0
 143 -65 148 -44 158 -24 c 0
 171 3 177 38 181 53 c 0
 192 101 186 111 225 112 c 0
 233 113 271 117 282 117 c 0
 283 117 284 117 285 117 c 0
 296 116 300 113 300 104 c 0
 300 95 296 79 291 50 c 0
 286 3 221 -84 213 -91 c 0
 203 -100 191 -103 179 -103 c 0
 165 -103 151 -98 145 -88 c 1
 145 -88 l 1
15 -88 m 1
 14 -86 13 -83 13 -79 c 0
 13 -66 19 -45 29 -24 c 0
 42 3 47 38 51 53 c 0
 62 101 57 111 96 112 c 0
 104 113 142 117 153 117 c 0
 154 117 155 117 156 117 c 0
 167 116 171 113 171 104 c 0
 171 95 167 79 162 50 c 0
 157 3 92 -84 84 -91 c 0
 74 -100 61 -103 49 -103 c 0
 34 -103 21 -98 15 -88 c 1
 15 -88 l 1
EndSplineSet
Validated: 1
EndChar

StartChar: NameMe.257
Encoding: 257 8220 115
Width: 319
Flags: HW
LayerCount: 2
Fore
SplineSet
149 737 m 0
 149 725 153 711 144 700 c 0
 131 684 107 679 87 679 c 0
 73 679 58 682 44 685 c 0
 33 689 34 703 34 713 c 0
 34 733 35 751 38 771 c 0
 46 806 63 839 82 870 c 0
 90 882 97 895 109 904 c 0
 115 909 123 911 130 911 c 0
 137 911 143 909 148 905 c 0
 157 898 162 890 163 879 c 0
 164 874 165 868 165 863 c 0
 165 857 164 851 162 845 c 0
 153 808 149 772 149 737 c 0
273 738 m 0
 273 732 274 727 274 721 c 0
 274 715 273 708 268 702 c 0
 255 686 232 681 212 681 c 0
 198 681 183 684 169 687 c 0
 158 691 157 704 157 714 c 0
 157 734 158 752 161 772 c 0
 169 807 187 840 206 871 c 0
 214 883 221 896 233 905 c 0
 239 910 246 912 253 912 c 0
 259 912 266 910 271 906 c 0
 280 899 285 891 286 880 c 0
 287 875 288 870 288 865 c 0
 288 859 287 853 285 847 c 0
 276 810 273 773 273 738 c 0
EndSplineSet
Validated: 33
EndChar

StartChar: Ccedilla
Encoding: 199 199 116
Width: 598
Flags: HW
LayerCount: 2
Fore
SplineSet
243.18359375 -193.776367188 m 0
 208.268554688 -154.213867188 235.036132812 -101.129882812 253.556640625 -60.5859375 c 0
 274.877929688 12.4833984375 255.958984375 63.2734375 173.8359375 87.28125 c 0
 139.091796875 96.9541015625 109.401367188 118.073242188 87.015625 147.19140625 c 0
 39.966796875 205.869140625 35.5751953125 286.983398438 54.55078125 357.27734375 c 0
 61.2939453125 397.482421875 76.8515625 434.952148438 90.6689453125 472.89453125 c 0
 138.6171875 591.799804688 206.021484375 725.46484375 297.481445312 800.923828125 c 0
 339.989257812 832.98828125 436.154296875 831.21875 447.3359375 825.467773438 c 2
 447.3359375 825.467773438 458.96875 812.36328125 458.96875 809.799804688 c 0
 458.96875 803.3359375 448.095703125 806.060546875 440.68359375 791.9296875 c 0
 401.435546875 772.166992188 342.640625 751.189453125 315.833984375 719.30859375 c 0
 215.25390625 611.947265625 158.575195312 475.19921875 112.244140625 348.125976562 c 0
 104.954101562 306.112304688 98.359375 260.3203125 112.94140625 219.31640625 c 0
 143.356445312 168.8046875 199.080078125 134.247070312 258.799804688 134.921875 c 0
 357.64453125 131.952148438 434.810546875 167.396484375 498.173828125 232.836914062 c 0
 519.368164062 260.267578125 540.970703125 236.848632812 566.125976562 224.0625 c 1
 558.139648438 185.23046875 521.956054688 157.256835938 492.149414062 133.1875 c 0
 452.85546875 105.918945312 410.778320312 75.7861328125 361.34765625 73.59765625 c 0
 322.697265625 56.9384765625 328.15625 5.087890625 319.580078125 -29.564453125 c 0
 318.166992188 -65.8798828125 298.899414062 -104.751953125 307.268554688 -139.475585938 c 1
 349.225585938 -145.735351562 369.919921875 -94.5263671875 408.731445312 -90.8505859375 c 0
 465.512695312 -86.2978515625 440.986328125 -157.989257812 406.412109375 -172.913085938 c 0
 357.872070312 -194.560546875 280.870117188 -238.639648438 243.18359375 -193.776367188 c 0
EndSplineSet
Validated: 524321
EndChar

StartChar: guillemotleft
Encoding: 171 171 117
Width: 517
Flags: HW
LayerCount: 2
Fore
SplineSet
265.565429688 371.575195312 m 0
 248.258789062 301.557617188 230.915039062 234.748046875 242.294921875 226.483398438 c 0
 261.745117188 205.037109375 371.99609375 160.33203125 375.465820312 159.245117188 c 0
 445.729492188 137.245117188 451.59375 138.475585938 454.412109375 175.830078125 c 0
 458.736328125 233.16796875 436.420898438 258.8671875 384.284179688 282.260742188 c 0
 338.697265625 302.716796875 335.694335938 319.254882812 340.837890625 360.192382812 c 0
 343.877929688 384.380859375 369.69140625 453.099609375 384.6875 512.903320312 c 0
 399.68359375 572.70703125 419.370117188 577.364257812 411.952148438 628.284179688 c 0
 405.508789062 672.516601562 377.124023438 678.438476562 363.841796875 689.9375 c 0
 265.565429688 371.575195312 l 0
321.637695312 106.663085938 m 0
 310.06640625 84.6728515625 284.841796875 79.0478515625 197.809570312 79.0478515625 c 0
 89.76953125 79.0478515625 88.447265625 79.462890625 82.87109375 121.763671875 c 1
 82.87109375 121.760742188 l 1
 76.5146484375 169.874023438 83.7451171875 207.547851562 123.650390625 333.873046875 c 0
 138.911132812 382.204101562 157.963867188 445.471679688 165.987304688 474.469726562 c 0
 232.0703125 713.263671875 260.747070312 745.989257812 301.622070312 687.0390625 c 1
 287.701171875 507.822265625 196.724609375 298.185546875 163.38671875 176.44140625 c 1
 249.228515625 174.767578125 331.629882812 161.380859375 321.637695312 106.663085938 c 0
EndSplineSet
Validated: 524329
EndChar

StartChar: guillemotright
Encoding: 187 187 118
Width: 706
Flags: HW
LayerCount: 2
Fore
SplineSet
324.2109375 371.575195312 m 0
 341.517578125 301.557617188 358.860351562 234.748046875 347.481445312 226.483398438 c 0
 328.03125 205.037109375 217.779296875 160.33203125 214.309570312 159.245117188 c 0
 144.046875 137.245117188 138.181640625 138.475585938 135.364257812 175.830078125 c 0
 131.0390625 233.16796875 153.35546875 258.8671875 205.4921875 282.260742188 c 0
 251.078125 302.716796875 254.08203125 319.254882812 248.9375 360.192382812 c 0
 245.8984375 384.380859375 220.084960938 453.099609375 205.088867188 512.903320312 c 0
 190.092773438 572.70703125 170.40625 577.364257812 177.82421875 628.284179688 c 0
 184.267578125 672.516601562 212.651367188 678.438476562 225.934570312 689.9375 c 0
 324.2109375 371.575195312 l 0
268.138671875 106.663085938 m 0
 258.146484375 161.380859375 340.547851562 174.767578125 426.389648438 176.44140625 c 1
 393.05078125 298.185546875 302.07421875 507.822265625 288.154296875 687.0390625 c 1
 329.029296875 745.989257812 357.706054688 713.263671875 423.788085938 474.469726562 c 0
 431.8125 445.471679688 450.864257812 382.204101562 466.125976562 333.873046875 c 0
 506.03125 207.547851562 513.260742188 169.874023438 506.905273438 121.760742188 c 1
 506.905273438 121.763671875 l 1
 501.328125 79.462890625 500.006835938 79.0478515625 391.965820312 79.0478515625 c 0
 304.934570312 79.0478515625 279.709960938 84.6728515625 268.138671875 106.663085938 c 0
EndSplineSet
Validated: 524321
EndChar

StartChar: currency
Encoding: 164 164 119
Width: 796
Flags: HW
LayerCount: 2
Fore
SplineSet
650.102539062 60.0048828125 m 2
 600.778320312 69.8701171875 578.125976562 120.578125 538.421875 145.943359375 c 1
 495.528320312 131.446289062 454.788085938 106.66015625 408.215820312 106.793945312 c 0
 357.727539062 98.9248046875 312.21484375 131.168945312 279.244140625 165.950195312 c 0
 236.463867188 197.461914062 202.295898438 139.40625 176.219726562 113.112304688 c 0
 151.517578125 81.8115234375 88.41796875 39.4697265625 64.478515625 93.9853515625 c 1
 57.4853515625 185.205078125 166.66015625 221.375976562 180.537109375 344.74609375 c 0
 187.442382812 383.134765625 178.321289062 422.8359375 182.078125 461.807617188 c 0
 182.465820312 494.365234375 201.413085938 527.232421875 184.5625 558.727539062 c 0
 158.90234375 613.022460938 100.733398438 647.043945312 86.7744140625 708.006835938 c 0
 64.1220703125 759.03125 121.331054688 791.120117188 165.336914062 780.561523438 c 0
 203.208984375 773.690429688 186.509765625 709.635742188 225.680664062 693.8828125 c 1
 274.25 648.11328125 345.627929688 658.02734375 406.697265625 654.682617188 c 0
 454.766601562 652.8125 502.84765625 649.07421875 550.322265625 641.103515625 c 1
 595.120117188 652.276367188 604.651367188 707.362304688 642.260742188 730.240234375 c 1
 669.9140625 763.549804688 729.948242188 758.661132812 738.588867188 712.294921875 c 0
 743.434570312 669.018554688 711.080078125 633.647460938 690.291992188 598.641601562 c 0
 668.317382812 566.065429688 645.6015625 529.004882812 640.778320312 489.06640625 c 1
 670.979492188 436.719726562 648.879882812 335.139648438 622.911132812 281.37109375 c 0
 605.443359375 245.329101562 626.814453125 208.758789062 657.810546875 189.5078125 c 0
 688.750976562 167.130859375 723.139648438 143.560546875 733.755859375 104.577148438 c 0
 748.41015625 58.419921875 686.712890625 28.8857421875 654.237304688 59.4130859375 c 1
 650.102539062 60.0048828125 l 2
538 512 m 0
 510.5 560.76953125 452.219726562 569.56640625 406.600585938 573.336914062 c 0
 355.19140625 577.010742188 325.502929688 561.8828125 298.479492188 520.543945312 c 0
 255.245117188 446.654296875 271.657226562 367.610351562 274.963867188 301.442382812 c 0
 287.466796875 256.895507812 361.153320312 225.170898438 404.772460938 214.157226562 c 1
 562.50390625 236.15234375 588.467773438 402.953125 538 512 c 0
EndSplineSet
Validated: 524321
EndChar
